<?xml version="1.0" standalone="no"?>
<!DOCTYPE svg PUBLIC "-//W3C//DTD SVG 20010904//EN"
 "http://www.w3.org/TR/2001/REC-SVG-20010904/DTD/svg10.dtd">
<svg version="1.0" xmlns="http://www.w3.org/2000/svg"
 width="8000.000000pt" height="8000.000000pt" viewBox="0 0 8000.000000 8000.000000"
 preserveAspectRatio="xMidYMid meet">

<g transform="translate(0.000000,8000.000000) scale(0.100000,-0.100000)"
fill="#000000" stroke="none">
<path d="M50500 72913 c-25 -1 -112 -8 -195 -13 -283 -20 -621 -76 -877 -145
-344 -93 -802 -299 -1023 -460 l-50 -36 126 7 c153 8 161 2 94 -66 -39 -40
-54 -48 -94 -53 -124 -15 -270 -83 -560 -262 -292 -180 -331 -196 -331 -144 0
32 -16 22 -76 -48 -77 -91 -116 -154 -165 -265 -52 -121 -86 -185 -118 -227
-15 -20 -107 -88 -211 -156 -235 -155 -439 -303 -663 -480 -136 -107 -173
-141 -158 -145 17 -4 7 -25 -81 -170 -374 -621 -607 -971 -1348 -2025 -846
-1206 -1206 -1844 -1474 -2613 -20 -57 -36 -106 -36 -107 0 -2 20 -5 44 -7
l44 -3 -110 -145 c-60 -80 -114 -154 -120 -165 -11 -20 -11 -20 10 -1 20 17
22 18 28 2 4 -10 3 -50 -1 -89 -4 -40 -9 -118 -11 -174 -4 -115 18 -65 -189
-433 -110 -195 -415 -770 -415 -781 0 -12 39 -21 81 -21 78 1 159 67 205 166
31 67 30 54 -6 -72 -43 -146 -104 -292 -225 -533 -124 -248 -193 -398 -229
-499 l-27 -75 55 55 56 54 -86 -183 c-47 -101 -83 -186 -79 -189 4 -4 25 -12
48 -18 32 -8 42 -15 41 -30 -1 -10 -23 -84 -48 -164 -45 -139 -90 -315 -226
-885 -87 -365 -149 -540 -227 -642 l-24 -31 73 19 c93 24 112 24 105 2 -3 -10
-52 -133 -109 -273 -110 -270 -149 -370 -144 -370 1 0 40 76 86 170 46 93 85
168 87 166 10 -10 -191 -1051 -236 -1225 -24 -90 -172 -818 -186 -915 l-8 -49
37 28 36 27 0 -65 c0 -46 -10 -100 -34 -179 -19 -62 -32 -115 -30 -117 2 -3
24 15 49 39 25 24 46 42 48 39 3 -2 -2 -60 -9 -127 -35 -316 -42 -788 -18
-1227 8 -132 15 -427 17 -655 4 -382 1 -507 -18 -847 -7 -123 0 -232 15 -216
4 4 13 59 20 122 7 63 19 137 28 165 l15 51 15 -45 c22 -66 25 -382 6 -525 -8
-60 -21 -136 -28 -168 -13 -55 -13 -57 4 -42 31 28 61 114 90 253 16 73 31
136 34 139 12 12 35 -20 56 -77 18 -49 21 -72 16 -118 -4 -32 -4 -61 0 -65 4
-3 20 3 35 14 62 44 89 4 96 -139 l5 -97 -96 -112 c-53 -62 -96 -118 -96 -126
0 -45 35 -122 79 -172 61 -69 71 -104 78 -275 6 -161 -5 -223 -40 -218 -17 2
-36 31 -84 123 -93 182 -109 169 -107 -90 1 -230 21 -293 199 -660 153 -315
201 -427 259 -611 33 -102 76 -342 87 -478 8 -110 16 -155 39 -218 58 -159
109 -188 174 -98 20 28 43 50 51 50 24 0 41 -53 65 -200 11 -74 24 -155 29
-180 5 -32 9 14 14 160 7 204 18 424 21 426 0 1 27 -27 58 -60 l56 -62 31
-175 31 -176 -24 -94 c-32 -125 -43 -226 -44 -384 l0 -130 10 104 c11 116 21
151 42 151 28 0 108 -126 121 -190 26 -129 144 -657 181 -810 308 -1261 692
-2291 1165 -3115 50 -88 100 -180 111 -205 11 -25 32 -58 48 -75 15 -16 67
-89 114 -162 334 -516 723 -943 1151 -1263 233 -175 493 -332 740 -449 210
-100 535 -220 735 -271 25 -7 57 -21 72 -31 33 -24 140 -73 268 -123 223 -89
246 -110 134 -131 -10 -2 -46 -4 -79 -6 -33 -1 -46 -4 -30 -6 134 -16 303 -51
380 -79 11 -4 -16 17 -60 46 -44 29 -105 72 -136 96 -68 52 -161 104 -271 150
-46 20 -72 33 -58 29 61 -14 372 -64 440 -70 41 -4 86 -9 100 -12 48 -10 616
-11 725 -2 371 31 775 119 1117 243 277 100 690 289 996 454 161 88 449 215
525 232 33 7 54 7 67 0 38 -20 23 -43 -53 -82 -39 -21 -175 -105 -301 -188
-276 -181 -339 -213 -418 -214 -36 -1 -53 -5 -47 -10 44 -45 -49 -125 -278
-240 -39 -19 -74 -40 -78 -46 -9 -15 70 -13 162 5 43 8 83 15 88 15 41 -1
-428 -235 -632 -316 -370 -146 -730 -222 -1153 -243 -812 -40 -1624 181 -2365
643 -71 45 -132 82 -135 84 -3 1 -4 -18 -2 -42 5 -53 -10 -84 -43 -92 -14 -3
-25 -9 -25 -13 0 -16 580 -310 840 -426 157 -70 424 -203 485 -242 l60 -38
-59 -3 c-139 -7 -308 52 -520 181 -192 117 -228 137 -256 137 -21 -1 -16 -6
30 -36 30 -20 117 -67 193 -105 172 -87 257 -160 200 -171 -40 -8 -195 13
-278 37 -115 34 -234 96 -370 195 -60 44 -140 101 -177 127 -38 25 -68 48 -68
50 0 2 33 2 73 -2 71 -6 72 -6 47 12 -247 178 -369 308 -475 508 -94 176 -172
263 -435 489 -134 115 -191 149 -276 163 -42 7 -47 -11 -29 -99 23 -105 3
-179 -33 -127 -9 13 -82 92 -162 174 -237 246 -390 428 -463 553 -48 82 -89
188 -85 222 3 27 9 20 77 -76 74 -106 241 -326 269 -354 20 -20 17 -15 -75
133 -181 289 -344 592 -403 750 -19 48 -37 87 -41 87 -9 0 -19 -37 -19 -75 0
-21 -26 29 -81 160 -140 329 -189 482 -190 603 l-1 60 -95 7 c-52 4 -96 5 -98
3 -2 -1 19 -32 45 -67 101 -134 264 -441 314 -593 27 -78 34 -158 16 -158 -38
0 -103 59 -160 144 -42 63 -143 275 -210 444 -29 73 -54 131 -56 129 -2 -2 17
-60 42 -128 67 -182 155 -441 240 -714 161 -508 242 -658 535 -993 50 -57 93
-101 95 -99 2 2 -7 34 -21 72 -14 37 -23 70 -20 73 9 9 260 -252 521 -543 351
-392 517 -550 724 -690 47 -31 87 -59 89 -61 2 -2 -19 -1 -47 3 -69 8 -102 -2
-102 -30 0 -12 4 -27 8 -34 9 -15 240 -117 451 -200 592 -233 1151 -369 1693
-412 176 -15 701 -6 843 13 369 50 574 96 850 192 l160 56 242 1 c133 1 244 5
248 8 3 4 0 34 -8 68 l-15 62 92 46 c154 78 242 100 278 71 8 -7 25 -28 37
-45 19 -27 29 -33 59 -33 37 1 37 1 12 15 -19 10 -22 15 -10 19 8 3 62 22 120
42 139 47 277 113 323 153 21 19 52 63 71 105 39 81 87 132 166 175 l55 31
-37 0 c-47 0 -175 -40 -292 -92 -166 -74 -276 -109 -325 -106 l-46 3 0 39 0
38 125 42 c273 92 644 279 1180 594 196 116 433 229 532 254 77 19 106 20 178
2 24 -5 94 62 727 693 789 787 1111 1131 1568 1678 353 422 794 1017 810 1092
9 45 -6 47 -54 7 -70 -61 -55 -33 32 56 168 174 312 427 502 880 145 347 196
443 250 466 28 11 33 20 44 71 19 99 21 162 5 247 -8 44 -17 95 -20 111 -5 26
5 44 74 132 149 192 304 432 423 658 39 74 69 135 66 135 -3 0 -36 -48 -73
-107 -40 -63 -70 -101 -72 -92 -3 15 208 362 216 354 2 -1 -8 -26 -22 -54 -15
-28 -25 -51 -22 -51 8 0 56 80 56 94 0 7 25 67 56 132 31 66 74 157 96 204 56
120 356 849 438 1065 193 509 433 1092 529 1283 43 85 53 114 24 72 -30 -46
-77 -90 -95 -90 -21 0 -33 20 -59 104 -11 36 -24 68 -29 71 -5 3 10 30 33 58
204 250 410 795 551 1457 69 320 136 703 136 773 0 15 -61 47 -88 47 -10 0
-23 -5 -30 -12 -22 -22 -13 5 73 227 46 120 82 221 80 223 -2 2 -16 -5 -31
-17 -15 -12 -29 -19 -31 -17 -4 4 28 255 53 406 25 157 62 342 119 595 67 302
139 679 171 894 19 132 24 204 23 356 0 162 -12 324 -19 260 -10 -103 -48
-264 -72 -307 -20 -36 -84 -87 -110 -88 -3 0 -5 26 -2 58 4 61 40 799 49 1017
10 252 16 352 30 585 8 129 17 273 20 320 l5 85 -21 -33 c-13 -20 -25 -30 -31
-24 -11 11 -13 193 -4 282 9 76 34 279 41 332 6 40 9 38 -90 53 l-40 6 1 167
c1 92 -5 239 -12 327 -21 259 -29 447 -29 665 l0 205 43 -3 c23 -2 42 -1 42 2
0 2 -18 26 -40 51 -37 43 -40 44 -40 21 0 -38 -16 -40 -33 -3 -41 87 -53 196
-62 567 -13 528 -41 798 -109 1040 -24 87 -27 88 -46 10 -18 -73 -31 -100 -50
-100 -20 0 -35 30 -61 120 -24 83 -24 103 2 126 71 62 74 165 17 442 -39 195
-45 252 -28 313 10 37 42 78 73 96 16 8 3 36 -113 247 l-131 237 55 78 54 78
-55 54 c-137 135 -179 245 -203 544 -20 245 -64 421 -148 592 -57 118 -72 132
-72 70 0 -25 -4 -48 -9 -52 -10 -6 -151 408 -151 444 0 33 19 25 68 -26 24
-27 40 -39 34 -28 -5 11 -55 112 -109 225 -205 423 -435 800 -489 800 -17 0
-19 -53 -3 -116 8 -31 16 -44 29 -44 31 0 82 -71 146 -205 63 -130 175 -407
169 -414 -2 -2 -15 -1 -29 3 -35 9 -102 79 -218 228 -119 153 -193 229 -252
258 -46 22 -49 28 -61 113 -8 52 -18 61 -81 71 -41 7 -42 8 -79 94 -104 242
-258 484 -578 911 -205 273 -344 476 -391 569 -24 47 -25 55 -13 73 25 35 1
102 -76 212 -22 31 -42 56 -44 54 -5 -6 46 -163 73 -224 28 -65 19 -68 -67
-22 -56 30 -239 174 -239 188 0 4 20 34 45 67 24 32 44 64 44 69 0 17 -351
294 -541 429 l-68 48 16 -44 c68 -187 124 -352 121 -355 -6 -5 -219 151 -359
263 -64 51 -221 184 -350 295 -467 406 -607 511 -856 649 l-113 62 -46 -13
c-107 -30 -218 -5 -569 124 -531 197 -781 257 -1064 260 -122 1 -253 -14 -288
-32 -8 -4 9 -12 40 -19 106 -25 398 -105 394 -109 -2 -2 -41 3 -87 11 -228 42
-347 51 -664 50 -328 -2 -583 -30 -1415 -154 -74 -11 -137 -20 -140 -19 -3 0
40 16 95 35 255 88 606 161 1141 239 92 13 494 55 587 61 59 4 117 8 130 9 12
1 87 4 167 5 232 4 132 13 -425 40 -182 9 -846 11 -955 3z m407 -674 c37 -31
33 -39 -16 -39 -51 0 -19 -19 34 -21 63 -1 12 -17 -60 -19 -33 -1 -127 -9
-210 -19 -148 -17 -152 -17 -290 5 -293 46 -284 43 -150 38 470 -17 559 -16
595 3 31 16 35 22 35 60 0 45 -2 46 62 -8z m3503 -477 c30 -21 196 -178 340
-322 98 -97 157 -181 144 -202 -3 -5 -36 19 -73 54 -90 84 -187 137 -362 197
-169 57 -223 82 -244 114 -17 26 -31 87 -21 87 4 0 51 -31 104 -69 104 -74
160 -106 170 -97 3 3 -17 43 -45 88 -67 111 -85 147 -78 158 9 15 37 12 65 -8z
m1305 -918 c95 -90 97 -94 50 -68 -93 51 -143 88 -154 111 -13 28 -14 53 -3
53 4 0 52 -43 107 -96z m205 -189 c13 -14 21 -25 18 -25 -2 0 -15 11 -28 25
-13 14 -21 25 -18 25 2 0 15 -11 28 -25z m-9197 -163 c-32 -31 -92 -107 -133
-167 -41 -61 -94 -129 -118 -152 -40 -39 -115 -82 -171 -98 -22 -7 -23 -5 -17
21 4 16 24 65 45 109 63 133 158 215 351 302 52 24 97 43 98 43 2 0 -23 -26
-55 -58z m-515 -771 c-74 -143 -60 -158 88 -94 96 42 115 38 95 -19 -14 -39
-9 -34 58 60 29 39 55 72 58 72 8 0 -57 -112 -85 -145 -41 -50 -82 -74 -167
-100 -51 -15 -90 -34 -105 -50 -36 -38 -36 -21 0 35 23 37 30 57 26 75 -13 51
-48 30 -198 -118 -62 -62 -122 -107 -141 -107 -11 0 32 76 89 156 77 109 295
334 324 334 5 0 -14 -44 -42 -99z m-1976 -4739 c-42 -107 -78 -189 -80 -184
-2 6 8 65 22 131 15 67 26 137 26 156 0 30 3 35 23 35 13 0 36 13 52 30 16 16
30 29 31 27 1 -1 -32 -89 -74 -195z m-2126 -5482 c-1 -113 -5 -134 -35 -225
-30 -88 -35 -96 -43 -75 -19 50 11 305 53 450 l13 45 7 -35 c3 -19 6 -91 5
-160z m-160 -402 c-9 -175 -25 -217 -130 -343 -43 -51 -74 -100 -89 -140 l-22
-60 -3 78 c-5 122 16 183 106 317 67 99 100 163 126 243 14 43 18 8 12 -95z
m16928 -238 c3 -41 7 -183 10 -315 l6 -240 -19 50 c-10 28 -32 77 -48 110 -62
123 -75 201 -47 296 15 52 82 184 90 177 2 -2 5 -37 8 -78z m-129 -664 c-40
-198 -161 -342 -269 -322 -19 4 -38 11 -41 16 -8 14 56 136 155 295 48 77 105
172 126 212 l39 71 3 -96 c2 -61 -3 -127 -13 -176z m162 -53 c-3 -10 -5 -4 -5
12 0 17 2 24 5 18 2 -7 2 -21 0 -30z m-501 -330 c-8 -23 -20 -74 -26 -114 -12
-70 -11 -78 14 -151 14 -43 29 -97 32 -120 l7 -43 -44 49 c-86 97 -84 92 -69
150 17 67 91 278 96 273 2 -2 -2 -22 -10 -44z m-528 -2762 c16 -10 -2 -59 -50
-134 -25 -40 -35 -48 -57 -45 -22 3 -26 7 -25 35 3 46 35 104 74 131 37 25 39
25 58 13z m163 -558 c5 -169 -83 -510 -187 -719 -24 -49 -42 -81 -39 -71 3 10
43 170 90 355 117 465 116 462 126 462 5 0 9 -12 10 -27z m-22 -890 c-42 -99
-79 -148 -93 -125 -4 6 103 172 111 172 1 0 -7 -21 -18 -47z m-15552 -105 c-8
-177 -41 -272 -81 -232 -26 26 -47 84 -41 118 2 17 7 62 10 100 10 109 27 135
89 136 l29 0 -6 -122z m15433 34 l12 -53 -47 -70 c-27 -38 -50 -67 -52 -65 -4
4 33 186 49 235 12 40 20 31 38 -47z m-1735 -2778 c0 -27 -14 -89 -29 -138
-41 -126 -177 -397 -212 -425 -16 -12 -73 -65 -127 -117 -107 -104 -107 -104
-7 71 75 131 267 489 316 588 21 42 43 76 49 74 5 -2 10 -26 10 -53z m-757
-1466 c-14 -58 -28 -70 -17 -16 4 24 8 46 9 51 0 4 4 7 9 7 5 0 4 -19 -1 -42z
m155 -48 c-23 -22 -48 -40 -55 -40 -7 0 6 18 29 40 23 22 48 40 55 40 7 0 -6
-18 -29 -40z m-121 -59 l27 -6 -45 -60 c-80 -107 -178 -292 -209 -392 -5 -19
-3 -22 12 -17 28 10 88 71 173 174 43 52 90 106 105 120 l27 25 -7 -25 c-34
-119 -130 -260 -302 -443 -271 -290 -313 -344 -313 -400 0 -34 37 -63 98 -79
l54 -13 -135 -112 c-258 -215 -387 -286 -387 -213 0 12 26 54 58 93 254 313
608 912 743 1255 34 86 47 111 59 106 8 -4 27 -9 42 -13z m-999 -1196 c-37
-116 -39 -119 -83 -146 -62 -38 -154 -73 -143 -56 21 37 258 335 261 328 1 -4
-15 -60 -35 -126z m-105 -342 c-14 -68 -67 -176 -125 -258 -138 -193 -370
-392 -793 -680 -241 -164 -510 -360 -510 -371 0 -7 80 35 125 66 58 39 166 92
173 85 11 -10 -332 -343 -447 -434 -170 -135 -368 -272 -568 -392 -175 -105
-503 -282 -510 -275 -2 1 30 25 69 52 118 80 493 363 632 478 426 350 927 830
1302 1248 l150 168 228 160 c125 88 239 169 253 180 14 11 27 20 28 20 1 0 -2
-21 -7 -47z m-1699 -1865 c-13 -56 -15 -59 -84 -114 -89 -70 -92 -72 -62 -34
16 19 56 70 89 113 34 42 62 77 64 77 1 0 -2 -19 -7 -42z m-3816 -2149 c-32
-28 -72 -62 -89 -75 l-32 -25 -107 58 -107 58 59 7 c61 8 244 24 301 26 l33 2
-58 -51z"/>
<path d="M29645 72883 c-1545 -82 -2436 -298 -3152 -765 -68 -44 -123 -82
-123 -85 0 -2 55 -3 121 -1 88 2 123 0 126 -9 2 -7 -15 -32 -38 -58 -33 -36
-48 -45 -74 -45 -104 0 -306 -96 -626 -296 -200 -126 -259 -146 -259 -92 0 20
-5 17 -46 -22 -79 -78 -134 -160 -209 -315 -92 -191 -115 -221 -206 -275 -296
-176 -765 -512 -949 -680 -30 -27 -32 -31 -12 -27 12 3 22 3 22 0 0 -3 -32
-58 -72 -122 -39 -64 -122 -199 -183 -301 -62 -102 -170 -277 -240 -390 -443
-710 -773 -1246 -895 -1455 -571 -976 -908 -1770 -1079 -2545 -29 -132 -63
-315 -76 -415 -3 -27 -9 -58 -11 -68 -5 -17 -1 -18 40 -12 25 4 46 5 46 1 0
-3 -41 -87 -91 -188 -53 -108 -82 -175 -69 -163 14 13 24 15 31 8 5 -5 15 -70
21 -144 5 -74 16 -151 23 -173 11 -32 11 -44 -1 -80 -46 -129 -354 -1166 -354
-1191 0 -3 20 -5 45 -5 58 0 114 28 149 75 28 36 66 130 66 161 0 10 3 15 6
11 11 -11 -16 -239 -46 -387 -16 -80 -59 -264 -95 -410 -56 -226 -105 -457
-105 -494 0 -6 18 16 41 49 47 69 48 83 -6 -164 -19 -90 -35 -165 -35 -167 0
-2 25 -4 56 -4 l57 0 -6 -47 c-3 -27 -9 -86 -12 -133 -4 -47 -8 -103 -11 -125
-2 -22 -7 -186 -9 -365 -13 -859 -18 -934 -69 -1080 -13 -39 -22 -70 -19 -70
2 0 38 16 80 35 42 19 77 34 78 33 2 -2 -19 -147 -46 -323 -27 -176 -48 -329
-47 -340 2 -11 21 56 42 148 22 92 43 162 47 155 7 -13 14 -136 24 -418 4 -85
8 -177 10 -205 2 -27 6 -149 10 -270 13 -525 15 -571 30 -885 3 -52 7 -160 10
-240 3 -80 9 -158 12 -173 l5 -29 24 36 c14 20 27 36 29 36 16 0 28 -104 26
-229 -1 -80 1 -143 3 -140 2 2 20 28 39 58 l36 53 5 -33 c3 -19 17 -101 31
-184 47 -287 110 -568 174 -780 21 -71 75 -247 119 -390 168 -545 251 -847
312 -1140 65 -313 109 -475 130 -475 3 0 -2 50 -12 112 -18 117 -25 214 -15
224 9 10 72 -124 101 -215 33 -105 74 -325 84 -456 l8 -100 18 54 c17 48 18
73 12 223 -8 198 -3 205 67 106 32 -45 46 -77 51 -111 9 -69 14 -73 52 -36 28
27 38 31 52 23 24 -14 58 -86 79 -165 l17 -66 -61 -133 -61 -134 18 -37 c28
-54 68 -97 109 -118 20 -11 46 -30 57 -43 53 -58 120 -235 130 -345 11 -117
-21 -112 -136 23 -111 128 -136 125 -105 -13 64 -289 110 -366 434 -723 142
-158 299 -354 383 -480 82 -124 183 -327 229 -460 35 -103 68 -158 139 -234
80 -86 116 -82 151 14 12 33 27 60 34 60 29 0 93 -109 181 -310 19 -41 34 -70
34 -65 0 6 -14 60 -30 120 -16 61 -30 114 -30 119 0 5 77 -143 171 -330 94
-186 198 -388 231 -449 79 -146 316 -571 343 -615 11 -19 34 -69 49 -110 83
-218 272 -521 550 -880 66 -85 159 -211 208 -280 138 -197 165 -233 307 -425
74 -99 185 -244 247 -322 l113 -142 -36 -7 -37 -7 25 -19 c112 -89 167 -140
267 -248 136 -147 224 -262 263 -345 37 -76 36 -85 -1 -85 -88 0 -219 127
-457 443 -73 97 -136 177 -139 177 -3 0 15 -28 40 -62 94 -128 336 -497 403
-613 122 -210 232 -387 298 -480 84 -117 224 -266 356 -379 107 -92 229 -183
229 -171 0 4 -16 34 -35 67 -20 33 -34 62 -32 64 2 2 53 -30 113 -71 143 -97
330 -258 539 -464 302 -298 467 -451 585 -538 63 -48 118 -89 123 -93 4 -3
-20 -2 -53 4 -54 9 -63 8 -80 -10 -41 -40 -21 -53 445 -289 1102 -557 1593
-750 2185 -859 296 -54 691 -78 970 -57 86 6 165 13 177 15 12 3 50 -5 85 -16
106 -33 402 -107 410 -102 4 3 8 34 8 69 l0 63 112 27 c136 33 245 43 277 26
13 -7 29 -28 37 -46 18 -45 50 -65 99 -64 l40 1 -33 8 c-66 15 -52 26 51 38
56 7 147 24 202 38 172 43 245 85 305 174 51 75 99 116 185 157 l70 34 -80 -5
c-51 -4 -155 -26 -284 -61 -269 -72 -373 -83 -383 -37 -6 27 13 62 36 66 187
35 320 67 451 111 341 112 596 237 1165 575 132 78 291 155 352 170 25 7 72
10 104 8 l57 -3 107 130 c136 167 191 239 390 520 544 766 994 1577 1350 2430
201 482 398 1055 385 1117 -9 39 -20 35 -51 -17 -48 -83 -44 -46 5 48 93 175
160 439 206 812 3 22 7 56 10 75 2 19 7 64 10 100 14 144 46 375 61 435 15 59
43 105 64 105 13 0 1 101 -21 189 -11 41 -39 112 -64 157 l-45 83 54 138 c64
164 104 293 156 497 42 166 92 397 87 402 -2 2 -20 -55 -41 -127 -25 -83 -42
-127 -49 -120 -6 6 11 79 48 203 32 106 60 195 62 198 3 3 3 -20 -1 -50 -5
-45 -4 -50 5 -25 5 17 11 53 13 80 2 28 17 145 34 260 54 369 83 602 112 900
73 768 133 1289 181 1584 17 101 28 185 26 188 -3 2 -8 -8 -11 -23 -11 -41
-45 -84 -67 -84 -13 0 -32 20 -55 58 -20 31 -45 66 -55 78 -19 20 -19 22 6 82
61 151 112 385 141 654 19 170 25 725 11 973 -9 169 -32 451 -48 596 l-12 107
-51 7 c-45 6 -53 4 -70 -17 l-19 -23 6 35 c3 19 11 80 17 135 11 108 28 249
36 305 l5 35 -30 -35 c-36 -43 -35 -46 -55 130 -27 238 -40 442 -51 800 -3 96
-7 252 -10 345 -7 233 -27 545 -40 640 -3 17 -9 68 -15 115 -16 118 -46 258
-81 368 -17 50 -31 92 -33 92 -2 0 -1 -62 2 -137 3 -91 0 -153 -8 -182 -13
-48 -75 -121 -89 -105 -5 5 -16 54 -26 109 -9 55 -48 269 -87 475 -38 206 -74
400 -79 430 -5 30 -18 102 -29 160 -10 58 -47 271 -81 474 -57 331 -64 365
-74 335 -7 -19 -16 -33 -20 -32 -13 2 -33 65 -50 157 -20 112 -22 124 -35 266
-6 69 -13 134 -15 145 -2 11 -4 32 -4 47 l-1 26 -69 -5 -69 -5 -12 73 c-18
109 -61 273 -145 554 -81 274 -114 403 -145 569 -26 140 -26 137 8 130 24 -4
63 10 52 19 -3 2 -24 18 -47 36 l-43 33 0 -34 -1 -33 -30 35 c-56 65 -108 234
-209 668 -59 252 -136 525 -186 659 -46 124 -122 279 -128 262 -2 -8 -7 -45
-9 -82 -9 -123 -39 -117 -109 23 -47 93 -48 94 -29 114 70 75 55 185 -66 476
-47 112 -63 172 -63 235 0 51 10 77 47 116 l24 26 -77 99 c-43 55 -115 146
-161 203 -46 57 -83 107 -83 111 0 5 18 42 40 82 22 40 40 78 40 83 0 6 -21
23 -47 40 -74 47 -150 130 -188 209 -34 70 -48 118 -100 363 -46 216 -102 362
-198 508 l-52 79 -3 -44 c-2 -25 -7 -48 -11 -52 -6 -7 -134 280 -167 377 -24
69 -7 75 56 18 l54 -48 -26 45 c-286 495 -386 657 -496 803 -117 154 -159 167
-127 39 14 -58 20 -69 34 -65 26 7 75 -55 144 -179 72 -131 192 -397 182 -406
-18 -19 -106 52 -210 169 -153 174 -225 242 -287 273 -53 26 -53 27 -69 96
l-16 70 38 -6 c48 -8 49 2 5 45 -37 36 -61 34 -53 -5 4 -21 1 -24 -27 -23 -66
2 -70 7 -156 177 -103 204 -243 417 -499 755 -216 286 -310 422 -390 565 -48
84 -51 94 -37 108 21 20 20 43 -2 102 -19 48 -100 177 -108 170 -6 -6 42 -167
66 -223 24 -57 24 -55 1 -55 -27 0 -154 87 -235 162 l-70 64 52 65 53 64 -58
53 c-117 107 -528 432 -547 432 -3 0 3 -20 14 -45 22 -52 110 -326 110 -344 0
-21 -292 209 -570 451 -545 473 -785 650 -1057 780 -98 47 -108 50 -139 39
-97 -35 -210 -19 -549 79 -378 110 -526 144 -750 176 -140 19 -398 22 -500 5
-85 -14 -215 -51 -215 -61 0 -4 28 -10 63 -14 76 -8 358 -55 372 -61 6 -3 -11
-2 -37 1 -26 3 -150 5 -275 5 -340 0 -553 -28 -983 -126 -774 -177 -943 -215
-947 -212 -2 2 56 28 129 57 508 203 1361 417 2003 503 35 5 -112 5 -200 0z
m-762 -773 c-2 -3 -21 -10 -41 -16 -33 -11 -25 -12 78 -15 63 -1 122 -3 130
-5 8 -1 49 -2 90 -3 49 -1 70 -5 60 -10 -29 -17 -185 -53 -295 -67 -105 -14
-441 -20 -495 -9 -14 3 -101 9 -195 12 -209 9 -160 18 140 28 373 12 456 34
442 120 l-6 34 49 -32 c27 -18 46 -34 43 -37z m3589 -256 c18 -21 67 -70 108
-108 256 -241 340 -337 340 -388 0 -16 -15 -6 -69 45 -91 86 -180 137 -332
192 -236 86 -258 96 -284 127 -16 19 -25 42 -25 64 l0 35 55 -41 c69 -51 207
-140 218 -140 14 0 6 17 -58 125 -36 60 -65 116 -65 124 0 10 10 12 39 8 30
-4 48 -14 73 -43z m-4891 -469 c-18 -8 -43 -15 -55 -14 -14 1 -7 6 19 14 54
18 78 18 36 0z m6154 -446 l100 -100 -80 46 c-86 50 -135 94 -135 123 0 15 8
32 14 32 1 0 46 -45 101 -101z m-995 -159 c0 -41 20 -85 64 -143 20 -26 36
-49 36 -52 0 -11 -176 138 -184 155 -10 22 6 47 39 60 36 15 45 11 45 -20z
m1191 -27 c13 -16 12 -17 -3 -4 -17 13 -22 21 -14 21 2 0 10 -8 17 -17z
m-9210 -470 c-37 -38 -99 -115 -138 -173 -96 -143 -158 -198 -263 -235 l-42
-15 6 32 c3 17 23 65 43 107 41 86 147 202 223 242 49 26 221 107 231 108 4 1
-23 -29 -60 -66z m9153 -430 c62 -75 71 -111 34 -135 -22 -15 -22 -16 -6 -49
9 -19 48 -70 88 -114 69 -77 106 -132 97 -141 -3 -3 -40 30 -83 73 -93 92
-125 152 -148 275 -9 47 -23 102 -31 122 -9 20 -13 36 -11 36 3 0 30 -30 60
-67z m-9657 -325 c-78 -145 -71 -174 28 -131 108 46 144 58 151 50 4 -4 3 -23
-3 -42 -6 -19 -10 -35 -8 -35 2 0 29 38 61 85 32 47 60 83 62 80 10 -10 -79
-143 -121 -182 -33 -30 -64 -47 -114 -62 -39 -12 -89 -35 -113 -52 l-43 -31
33 56 c23 40 30 64 26 81 -12 49 -44 31 -160 -88 -110 -112 -161 -155 -172
-144 -16 16 126 227 217 323 80 85 177 174 189 174 6 0 -9 -37 -33 -82z
m10796 -1347 c4 -1 7 -23 7 -50 0 -52 30 -214 55 -295 8 -27 13 -47 11 -45 -3
2 -54 86 -115 187 l-109 182 41 10 c23 6 46 12 52 14 5 1 18 1 30 0 11 -1 23
-3 28 -3z m-12269 -3582 c-52 -257 -52 -255 -64 -243 -13 13 -18 344 -4 344
15 0 69 60 89 98 9 19 18 32 21 30 2 -3 -16 -106 -42 -229z m15834 -5076 c6
-27 43 -160 82 -298 38 -137 70 -254 70 -259 0 -6 -13 10 -30 35 -16 24 -59
82 -95 129 -79 102 -100 163 -92 258 7 69 35 182 47 182 3 0 12 -21 18 -47z
m23 -583 c16 -100 14 -248 -5 -315 -36 -122 -116 -198 -189 -180 -23 6 -24 9
-16 50 14 76 39 165 94 340 30 94 60 190 66 215 l12 45 14 -45 c7 -25 18 -74
24 -110z m-16785 -148 c22 -73 26 -105 25 -202 0 -63 -3 -124 -5 -135 -3 -11
-5 -24 -6 -30 0 -5 -7 5 -16 24 -25 58 -45 199 -50 351 -4 135 -3 143 11 112
8 -18 27 -72 41 -120z m16961 26 c-3 -8 -6 -5 -6 6 -1 11 2 17 5 13 3 -3 4
-12 1 -19z m10 -40 c-3 -8 -6 -5 -6 6 -1 11 2 17 5 13 3 -3 4 -12 1 -19z
m-17021 -482 c23 -130 14 -198 -42 -317 -24 -53 -50 -127 -57 -165 l-13 -69
-19 65 c-12 42 -19 94 -19 145 0 71 5 93 46 195 26 63 49 135 53 160 3 25 8
54 10 65 2 11 4 29 5 40 2 35 19 -19 36 -119z m16648 -161 c68 -118 88 -157
83 -162 -3 -3 -38 17 -77 43 l-71 49 6 105 c3 58 9 132 13 165 7 58 7 57 12
-45 5 -92 9 -112 34 -155z m153 -2622 c-8 -62 -23 -114 -40 -137 -10 -14 -21
-16 -50 -11 -42 8 -42 4 -6 101 23 60 52 94 81 94 19 0 20 -4 15 -47z m309
-486 c26 -79 31 -435 10 -605 -9 -70 -21 -141 -25 -158 -8 -25 -9 -20 -10 31
-1 33 -4 226 -8 429 -6 386 -3 416 33 303z m199 -819 c-15 -103 -27 -139 -49
-148 -16 -6 -29 -28 -46 -79 -14 -39 -27 -71 -31 -71 -6 0 -19 149 -19 222 0
21 3 38 8 38 4 0 18 -21 32 -47 14 -26 30 -48 36 -50 5 -2 23 37 39 87 16 49
31 90 33 90 2 0 1 -19 -3 -42z m-15365 -1415 c0 -30 -49 -6 -80 37 -29 41 -64
229 -49 268 10 25 15 15 70 -133 32 -88 59 -166 59 -172z m14381 -1945 c-1
-86 -21 -258 -44 -388 -10 -52 -25 -93 -50 -135 -20 -33 -37 -56 -37 -52 0 5
18 97 39 205 22 109 49 257 62 329 12 73 25 131 27 128 3 -2 4 -42 3 -87z
m-128 -1478 c-3 -10 -21 -36 -40 -57 -26 -29 -31 -32 -22 -13 12 26 57 90 64
90 2 0 1 -9 -2 -20z m-184 -42 c-1 -43 -3 -47 -8 -23 -6 28 -3 75 5 75 2 0 3
-24 3 -52z m64 -167 c-33 -102 -67 -266 -78 -380 -5 -50 -3 -62 7 -59 22 7 74
104 128 238 28 70 58 136 65 147 35 46 6 -155 -42 -291 -13 -39 -80 -186 -148
-326 -130 -267 -151 -325 -137 -375 12 -42 45 -57 115 -51 41 3 55 1 50 -7
-28 -48 -158 -238 -214 -313 -104 -139 -169 -191 -186 -147 -8 20 2 54 66 223
147 385 284 965 306 1299 8 120 12 133 34 126 13 -4 61 6 66 14 1 1 -14 -44
-32 -98z m-616 -1758 c-12 -220 -135 -470 -379 -774 -191 -239 -191 -240 -24
94 83 166 185 381 226 477 55 129 87 191 124 238 27 34 52 62 54 62 3 0 2 -44
-1 -97z m-9927 -707 c0 -25 -3 -21 -74 79 l-57 80 65 -70 c36 -38 66 -79 66
-89z m555 -547 c161 -154 444 -408 547 -493 37 -30 51 -50 63 -89 13 -45 12
-117 -2 -117 -3 0 -31 24 -62 53 -31 28 -156 129 -276 222 -240 186 -358 292
-445 401 -57 71 -105 156 -98 173 1 5 64 -47 138 -116 205 -189 297 -270 280
-248 -8 11 -85 98 -170 194 -237 266 -310 355 -200 239 30 -31 132 -130 225
-219z m8128 -910 c-5 -42 -13 -54 -75 -115 l-70 -69 53 85 c29 47 61 100 72
118 11 18 21 32 22 30 2 -2 1 -24 -2 -49z m-6591 -322 c54 -35 95 -67 91 -70
-3 -4 49 -41 116 -84 293 -188 688 -455 831 -562 161 -121 310 -253 291 -259
-17 -6 -128 26 -186 53 -94 45 -196 119 -325 235 -129 116 -202 170 -229 170
-21 -1 40 -54 164 -143 55 -40 123 -94 152 -122 47 -46 74 -97 59 -112 -11
-11 -166 36 -252 76 -124 59 -208 119 -349 252 -70 66 -150 138 -177 160 -27
21 -47 39 -44 39 5 0 84 -15 134 -26 15 -3 -4 19 -57 65 -123 106 -251 251
-325 369 -32 51 -33 51 106 -41z m1848 -927 c395 -132 759 -198 1175 -216 119
-4 176 -12 275 -36 162 -40 339 -49 457 -23 111 24 115 28 49 55 -31 13 -56
26 -56 30 0 3 42 11 93 18 50 7 134 21 185 31 75 15 121 18 238 13 79 -3 143
-6 142 -8 -9 -9 -291 -87 -393 -109 -232 -51 -389 -66 -685 -70 -223 -3 -305
0 -435 16 -358 42 -666 120 -990 249 -107 43 -301 132 -250 115 11 -4 99 -33
195 -65z m585 -319 c55 -10 136 -25 180 -32 l80 -13 -100 -48 c-55 -26 -105
-48 -111 -48 -5 0 -50 38 -100 85 -49 47 -80 84 -69 81 11 -3 65 -14 120 -25z"/>
<path d="M57133 69124 c-11 -30 13 -61 53 -67 21 -4 39 -5 40 -4 5 5 -68 87
-77 87 -5 0 -12 -7 -16 -16z"/>
<path d="M38224 62168 c3 -13 15 -79 26 -148 12 -69 24 -127 27 -130 13 -12
-8 167 -27 231 -20 65 -36 95 -26 47z"/>
<path d="M59127 61511 c-10 -89 -8 -234 3 -199 13 43 20 169 12 218 l-8 45 -7
-64z"/>
<path d="M13892 57699 c-85 -22 -203 -55 -264 -75 l-110 -36 -47 44 c-25 24
-58 54 -73 67 l-26 23 -72 -50 c-81 -57 -209 -108 -296 -117 -33 -3 -167 -7
-299 -9 -256 -5 -340 -15 -476 -61 -100 -34 -230 -96 -223 -106 3 -5 23 -9 44
-9 54 0 59 -17 8 -30 -24 -7 -121 -36 -216 -66 -168 -53 -222 -63 -222 -45 0
5 23 30 51 55 28 26 43 43 33 40 -11 -4 -113 -53 -229 -110 -331 -162 -614
-335 -728 -445 -70 -67 -48 -86 61 -54 35 11 50 20 46 29 -10 26 89 97 241
171 142 70 355 159 363 151 2 -2 -3 -19 -11 -37 -16 -39 -86 -106 -235 -228
-121 -98 -184 -168 -215 -233 -21 -45 -25 -48 -77 -59 -30 -6 -61 -14 -69 -17
-11 -4 -13 3 -7 36 3 23 3 42 -2 42 -12 0 -72 -64 -72 -78 0 -7 13 -12 30 -12
32 0 36 -9 24 -69 -6 -28 -18 -37 -117 -88 -225 -115 -436 -272 -797 -593
-248 -220 -338 -293 -454 -370 -79 -53 -90 -58 -103 -44 -19 19 -62 11 -118
-21 -44 -26 -128 -95 -122 -101 6 -7 108 31 174 65 34 17 65 31 68 31 14 0 2
-56 -21 -103 -29 -56 -118 -189 -139 -207 -10 -8 -29 0 -78 31 -37 22 -71 38
-76 35 -27 -17 -389 -582 -379 -591 2 -2 67 22 143 54 77 32 159 65 183 74
l43 17 -17 -32 c-60 -117 -284 -453 -407 -610 -365 -468 -528 -707 -611 -894
-32 -73 -33 -77 -18 -107 38 -76 21 -205 -53 -417 -24 -69 -75 -216 -113 -326
-116 -330 -162 -537 -162 -723 0 -102 18 -228 30 -214 4 4 15 33 25 63 35 109
97 281 101 277 2 -2 -7 -55 -21 -118 -56 -267 -80 -501 -90 -864 -7 -274 -22
-518 -41 -680 -8 -71 -17 -156 -21 -189 -3 -33 -9 -52 -13 -45 -13 24 -20 225
-31 849 -6 333 -12 639 -14 680 -1 41 -4 134 -5 205 l-2 130 -24 -200 c-25
-208 -56 -431 -148 -1065 -83 -570 -107 -857 -99 -1170 6 -237 46 -594 67
-587 5 2 28 41 50 88 50 103 68 110 97 42 l21 -48 -24 -65 c-22 -63 -23 -74
-23 -415 0 -192 -4 -356 -9 -363 -5 -8 -19 -12 -32 -9 -29 5 -29 5 -4 -68 28
-80 70 -153 152 -263 111 -150 120 -183 99 -367 -6 -44 -12 -134 -16 -200 -3
-66 -8 -158 -10 -205 -28 -503 -28 -527 -12 -507 13 15 20 3 67 -125 102 -280
154 -454 244 -818 85 -346 104 -435 160 -755 14 -77 36 -198 50 -270 13 -71
43 -245 66 -385 43 -269 172 -932 220 -1136 83 -351 232 -817 344 -1078 68
-158 211 -463 222 -475 2 -3 19 10 37 27 l32 31 24 -174 c13 -96 27 -175 32
-175 5 0 9 5 9 10 0 29 38 -1 117 -92 49 -57 100 -108 113 -115 20 -10 31 -38
75 -200 29 -103 78 -269 109 -368 203 -636 185 -586 209 -574 95 49 125 155
81 282 -7 20 -11 37 -9 37 3 0 25 -35 50 -77 68 -117 155 -323 250 -592 118
-333 191 -500 185 -421 -1 14 -2 43 -1 65 2 37 5 33 46 -70 25 -60 57 -138 71
-172 l26 -63 45 31 c24 17 46 29 47 27 2 -1 22 -39 46 -83 89 -163 243 -407
411 -652 241 -350 355 -558 377 -684 l7 -40 45 76 c24 41 47 75 50 75 3 0 66
-130 140 -290 73 -159 135 -288 137 -287 2 3 -76 234 -103 301 -5 13 -4 17 4
12 15 -9 451 -593 617 -826 161 -227 598 -814 612 -823 5 -3 10 13 12 36 1 23
3 43 5 44 10 10 96 -95 149 -181 l62 -101 5 67 5 68 138 -145 c240 -252 426
-411 878 -750 379 -285 592 -458 919 -745 159 -139 251 -210 272 -210 6 0 -31
43 -81 95 -94 99 -128 142 -118 151 10 10 115 -48 204 -114 48 -36 152 -129
230 -207 136 -137 141 -140 128 -100 -14 48 -53 108 -117 180 -120 137 -121
148 -10 120 53 -13 77 -25 103 -51 39 -41 59 -43 59 -8 0 46 18 67 53 60 33
-7 144 -75 170 -104 8 -9 27 -75 41 -147 18 -89 32 -134 44 -143 35 -26 122
-45 161 -34 56 14 105 5 185 -34 132 -65 251 -171 230 -205 -5 -8 -30 -10 -83
-5 -216 19 -211 19 -211 4 0 -20 52 -67 155 -139 99 -69 164 -100 252 -123 70
-18 282 -52 373 -60 529 -45 757 -100 1090 -259 110 -53 271 -74 318 -41 28
19 28 47 0 113 -28 68 -19 78 54 61 29 -7 111 -32 182 -56 72 -24 131 -42 133
-41 1 2 -45 29 -103 61 -57 32 -103 60 -101 62 1 2 59 -15 127 -37 379 -124
841 -232 1255 -295 55 -8 129 -24 163 -34 249 -77 660 -59 1088 49 44 10 131
29 194 41 63 12 122 26 131 30 8 4 51 18 94 30 190 53 460 157 627 241 42 21
80 39 83 39 3 0 5 -16 5 -36 l0 -35 80 69 c133 115 386 284 511 341 129 58
153 47 104 -46 -46 -88 -190 -193 -442 -323 -79 -40 -141 -75 -140 -77 4 -3
92 36 312 142 77 36 172 81 210 98 187 84 433 214 545 288 97 63 152 109 245
203 66 67 143 155 171 196 71 104 155 240 149 240 -4 0 -33 -18 -65 -40 -32
-22 -61 -40 -64 -40 -8 0 95 191 172 319 41 69 143 231 227 361 246 381 347
562 421 755 23 60 23 60 24 22 0 -59 24 -107 53 -107 29 0 42 14 50 55 3 17
35 170 71 340 150 717 233 1228 291 1805 12 124 27 334 35 495 8 173 5 775 -5
843 -3 26 11 68 64 185 79 175 101 226 101 237 0 4 -28 13 -61 19 -34 6 -64
13 -68 16 -3 3 -5 68 -6 145 0 125 2 141 21 167 15 20 33 30 65 35 45 8 79 36
79 66 0 13 -3 12 -14 -4 -8 -10 -17 -16 -20 -13 -3 3 1 63 10 135 26 212 10
313 -62 396 -59 67 -72 99 -81 190 l-6 73 -15 -35 c-24 -59 -41 -158 -52 -300
-21 -283 -46 -345 -116 -296 -20 14 -20 16 -3 148 24 196 29 323 34 843 5 556
9 633 42 780 20 92 49 151 95 197 l39 39 -36 172 c-19 95 -38 182 -40 195 -27
118 -134 751 -274 1607 -97 594 -159 937 -242 1335 -68 326 -185 789 -206 812
-29 33 -43 22 -43 -32 0 -80 -15 -58 -17 25 -4 200 -84 435 -316 921 -115 240
-167 367 -167 405 0 10 5 28 12 38 10 16 6 25 -20 59 -56 70 -138 138 -219
180 l-78 41 -23 141 c-12 77 -36 193 -52 258 -31 122 -171 564 -177 558 -2 -2
9 -56 25 -120 26 -102 28 -141 6 -105 -11 18 -93 353 -88 361 2 3 -27 84 -66
178 -99 239 -224 517 -373 830 -387 813 -476 1009 -594 1310 -36 91 -67 167
-70 170 -2 2 -1 -18 2 -45 5 -37 3 -55 -9 -70 -16 -22 -3 -25 -150 32 l-45 17
-11 71 c-58 362 -283 826 -673 1390 -113 164 -329 456 -350 473 -19 16 -100
-28 -107 -57 -4 -18 -27 26 -94 183 -49 114 -93 209 -98 212 -4 3 -8 -7 -8
-23 0 -61 -15 -54 -93 45 -111 139 -273 372 -471 680 -409 634 -573 854 -755
1009 -106 91 -119 94 -62 16 74 -102 111 -178 111 -229 0 -45 -18 -97 -31 -92
-5 2 -61 62 -125 133 -182 203 -740 803 -1116 1199 l-67 71 6 -40 6 -40 -39
29 c-65 48 -129 113 -271 274 l-134 153 -38 -30 c-21 -17 -44 -37 -51 -45 -11
-14 -21 -8 -78 45 -98 89 -258 206 -532 389 -218 145 -363 248 -454 323 -30
24 -30 24 -8 36 12 6 27 21 33 32 10 20 9 20 -48 14 -32 -4 -60 -9 -63 -12 -3
-2 6 -13 20 -23 l25 -20 -32 0 c-62 0 -172 50 -458 210 -395 222 -741 365
-965 400 -41 7 -97 16 -125 20 -52 9 -70 4 -45 -10 9 -5 39 -27 68 -50 56 -45
69 -79 30 -81 -45 -2 -94 2 -160 12 -61 10 -67 13 -73 38 -3 16 -20 42 -38 59
-65 63 -159 89 -425 117 -190 20 -269 43 -311 90 -17 20 -34 47 -37 60 -3 14
-9 25 -13 24 -3 0 -75 -18 -159 -40z m-1866 -1429 c-98 -49 -179 -90 -181 -90
-7 0 -26 130 -20 139 4 7 49 11 113 12 59 1 136 7 172 14 36 7 71 13 79 14 7
0 -66 -39 -163 -89z m-1360 -868 c-43 -59 -112 -124 -155 -146 -17 -9 -70 -27
-119 -40 -48 -13 -104 -31 -123 -41 -31 -15 -28 -11 26 44 71 73 96 83 130 51
l25 -23 40 28 c22 15 57 46 77 69 40 45 125 117 131 111 3 -2 -12 -26 -32 -53z
m-1196 -135 c0 -2 -10 -12 -22 -23 l-23 -19 19 23 c18 21 26 27 26 19z m-160
-241 c-29 -61 -49 -90 -69 -100 -53 -28 -53 -3 2 65 85 107 102 126 105 124 2
-1 -15 -41 -38 -89z m-340 -833 c-83 -94 -135 -207 -175 -380 -42 -178 -47
-193 -75 -223 -20 -21 -38 -30 -59 -30 -17 0 -31 2 -31 5 0 2 15 28 34 57 45
72 98 177 94 190 -2 5 -45 -18 -96 -51 -51 -34 -103 -62 -115 -64 -19 -2 -22
3 -20 32 1 26 13 46 51 85 27 28 89 101 137 161 144 179 224 255 268 255 17 0
15 -5 -13 -37z m719 -77 c-54 -84 -65 -96 -90 -96 -17 0 -34 8 -43 22 -24 33
-20 46 16 53 42 10 94 43 137 89 19 20 36 34 38 32 2 -2 -24 -47 -58 -100z
m10113 -173 c73 -67 165 -151 203 -187 l70 -65 -130 45 c-153 53 -196 79 -236
142 -28 44 -69 156 -69 189 0 21 15 10 162 -124z m186 -356 c123 -143 171
-298 122 -404 -21 -48 -79 -91 -92 -70 -15 22 -47 141 -78 287 -28 134 -52
236 -67 284 -5 17 0 15 28 -8 19 -16 58 -56 87 -89z m193 16 c13 -16 12 -17
-3 -4 -10 7 -18 15 -18 17 0 8 8 3 21 -13z m-41 -689 c19 -20 63 -50 98 -65
35 -16 75 -38 89 -49 l26 -20 -91 0 -91 0 -66 134 c-70 143 -85 187 -32 93 17
-31 48 -73 67 -93z m1440 -2059 c29 -86 25 -126 -15 -137 -17 -4 -34 -3 -39 2
-15 15 -20 168 -6 185 23 28 38 15 60 -50z m-13296 -130 c-3 -133 -24 -251
-63 -371 -32 -99 -173 -436 -179 -430 -2 3 24 98 58 213 92 312 93 413 4 413
l-36 0 44 36 43 37 5 -44 c4 -32 7 -39 12 -24 4 11 28 92 55 180 54 182 62
180 57 -10z m13813 -97 c58 -61 143 -191 214 -330 58 -114 114 -247 106 -254
-2 -2 -52 74 -112 169 -59 94 -153 241 -207 325 -54 84 -98 155 -98 157 0 13
59 -28 97 -67z m567 -612 c2 -60 -19 -36 -36 41 -10 43 -17 83 -17 88 1 23 52
-101 53 -129z m-74 -22 c31 -16 52 -35 55 -48 38 -166 39 -165 -64 -16 -69
100 -69 105 9 64z m-14151 -758 c-9 -8 -10 -5 -5 14 3 14 7 34 7 45 1 11 4 5
6 -14 3 -19 -1 -39 -8 -45z m15020 -2316 c27 -52 70 -146 95 -208 39 -97 46
-122 45 -180 0 -49 -3 -61 -9 -47 -10 21 -209 540 -217 565 -12 37 41 -44 86
-130z m-15477 -514 c42 -133 45 -235 8 -314 l-25 -53 -32 48 c-85 126 -96 277
-32 473 l34 105 7 -79 c4 -43 22 -124 40 -180z m417 -473 c31 -93 28 -135 -19
-231 -23 -47 -40 -97 -41 -119 l-1 -38 -17 51 c-19 60 -37 84 -62 84 -26 0
-32 -29 -34 -190 -2 -139 -8 -180 -25 -180 -11 0 -46 152 -59 255 -16 122 -17
315 -2 315 4 0 20 -33 35 -72 32 -88 55 -121 78 -113 10 4 32 45 51 93 26 67
38 87 52 87 11 0 24 -10 31 -23 21 -43 22 -33 4 40 -37 150 -33 167 9 41z
m15642 -225 c-7 -27 -10 -29 -11 -10 -3 28 -3 46 0 75 1 21 2 21 11 -5 7 -17
7 -38 0 -60z m-111 -91 c0 -16 -31 15 -46 47 l-15 31 31 -35 c16 -19 30 -38
30 -43z m151 -167 c40 -124 105 -263 124 -264 18 -2 16 110 -5 231 -11 66 -20
133 -20 149 l0 29 26 -38 c39 -58 72 -156 93 -280 21 -116 23 -138 41 -347 19
-213 52 -300 114 -300 13 0 47 16 76 35 53 35 65 41 56 27 -2 -4 -6 -80 -7
-168 -3 -257 -29 -398 -72 -392 -28 4 -31 13 -72 193 -46 197 -189 635 -280
850 -36 88 -97 220 -135 293 -54 105 -64 132 -50 132 9 0 25 9 36 21 l19 21 8
-33 c5 -19 26 -90 48 -159z m417 -1608 c41 -77 80 -214 97 -342 17 -124 21
-585 5 -595 -5 -3 -10 1 -10 10 0 17 -119 576 -168 790 -20 90 -26 139 -24
195 l4 75 33 -38 c18 -20 46 -63 63 -95z m-14326 -2542 c-6 -8 -70 68 -140
163 -57 79 -62 89 -51 109 7 13 13 53 12 90 l0 67 91 -212 c51 -117 90 -214
88 -217z m14762 281 c12 -97 15 -145 9 -131 -3 8 -23 66 -45 129 l-38 115 34
-33 c26 -26 36 -44 40 -80z m166 -2402 c27 -301 33 -586 20 -909 -6 -151 -13
-293 -15 -315 -2 -22 -6 -71 -10 -110 -12 -141 -17 -184 -41 -370 -36 -272
-120 -742 -131 -731 -2 1 4 61 12 132 33 295 59 625 70 909 15 385 15 384 50
500 45 152 57 216 59 315 1 89 -10 180 -22 180 -4 0 -21 -24 -39 -53 l-32 -52
-2 165 c-1 91 -2 176 -2 190 0 14 11 61 25 105 15 44 29 97 33 118 4 21 9 36
11 34 2 -2 8 -51 14 -108z m139 -1542 c28 -43 51 -82 51 -87 0 -10 -129 -164
-141 -168 -5 -2 -7 2 -5 10 5 14 12 92 23 246 3 51 9 89 13 85 4 -4 31 -43 59
-86z m-12891 -1020 c74 -56 124 -116 172 -204 22 -41 40 -77 40 -79 0 -3 -14
3 -31 13 -46 26 -161 155 -232 258 -67 99 -64 99 51 12z m12753 -371 c-14 -56
-51 -143 -121 -281 -55 -110 -103 -216 -106 -235 l-6 -35 21 25 c11 14 41 77
67 140 83 204 124 270 167 270 19 0 19 -6 15 -132 -7 -161 -32 -250 -116 -408
-30 -58 -81 -154 -113 -215 l-58 -110 -1 57 c0 98 -8 98 -62 -4 -28 -51 -70
-122 -93 -158 -73 -109 -195 -245 -195 -216 0 18 76 213 85 221 7 6 32 71 56
145 67 212 214 632 276 785 64 160 110 256 162 335 l36 55 3 -79 c2 -53 -3
-104 -17 -160z m-12488 -91 c60 -75 84 -137 96 -242 6 -60 18 -110 34 -143 13
-27 21 -50 18 -50 -17 0 -122 104 -145 144 -15 26 -35 86 -46 143 -25 123 -46
186 -79 243 l-25 45 53 -45 c30 -24 72 -67 94 -95z m11657 -2044 c0 -6 -4 -12
-9 -15 -11 -7 -115 -180 -195 -324 -163 -291 -366 -519 -491 -548 l-30 -7 21
24 c167 193 276 329 317 394 3 6 -79 -74 -182 -176 -199 -197 -319 -297 -165
-138 198 205 413 485 551 721 12 20 39 46 60 57 39 21 123 29 123 12z m-7364
-826 c70 -41 133 -80 139 -86 17 -17 -16 -30 -62 -26 -34 4 -56 17 -117 67
-62 53 -96 93 -96 115 0 9 6 6 136 -70z m6232 -354 c-133 -87 -151 -90 -43 -9
53 40 77 53 109 57 5 0 -25 -21 -66 -48z"/>
<path d="M66050 57495 c-470 -91 -983 -241 -1435 -418 -772 -303 -1570 -769
-2220 -1298 -154 -125 -181 -151 -190 -178 -10 -33 0 -36 45 -12 45 23 60 26
60 11 0 -5 -12 -13 -26 -16 -53 -14 -207 -127 -320 -236 -129 -125 -220 -230
-387 -448 -249 -326 -316 -398 -360 -386 -15 4 -24 -7 -42 -47 -39 -84 -55
-164 -55 -267 l0 -96 -77 -56 c-170 -122 -390 -322 -563 -509 -102 -111 -96
-111 29 -1 38 33 61 48 61 39 0 -16 -263 -257 -280 -257 -27 0 -382 -450 -870
-1100 -380 -507 -615 -806 -777 -987 -53 -60 -81 -94 -62 -77 86 77 128 93
149 55 5 -11 10 -46 11 -78 0 -32 4 -67 8 -77 6 -16 -6 -30 -69 -77 -42 -32
-129 -112 -192 -178 -279 -289 -575 -759 -868 -1378 l-101 -213 33 -30 c25
-23 41 -30 65 -27 28 3 31 1 19 -13 -16 -19 -200 -250 -244 -307 l-33 -43 40
15 c23 8 41 10 41 4 0 -16 -129 -298 -182 -399 -80 -151 -201 -369 -328 -590
-279 -487 -403 -752 -459 -978 -37 -151 -35 -154 22 -52 85 154 125 196 192
200 54 4 55 3 40 -32 -7 -18 -108 -285 -223 -593 -264 -702 -423 -1103 -467
-1175 -35 -56 -67 -137 -78 -200 -10 -53 6 -21 55 108 43 113 73 162 102 162
13 0 12 -10 -5 -71 -25 -91 -55 -161 -140 -331 -38 -76 -69 -142 -69 -148 0
-5 24 -22 53 -36 28 -15 54 -28 56 -30 2 -1 -10 -41 -27 -87 -38 -106 -78
-242 -137 -472 -70 -272 -102 -377 -157 -518 -45 -117 -52 -127 -67 -114 -20
18 -61 31 -60 20 0 -4 11 -30 23 -58 l23 -50 12 30 c11 28 13 29 23 11 15 -27
3 -142 -26 -256 -14 -52 -68 -226 -120 -385 -136 -419 -186 -620 -201 -815
l-6 -85 23 30 c39 51 90 105 99 105 22 0 31 -45 24 -131 l-7 -90 -36 -15 c-98
-40 -129 -110 -171 -381 -11 -72 -30 -156 -42 -187 -23 -63 -74 -112 -126
-122 -18 -3 -33 -11 -33 -18 0 -6 16 -114 35 -240 19 -126 34 -231 32 -232 -1
-1 -37 -20 -79 -44 -43 -23 -78 -44 -78 -46 0 -3 11 -26 24 -52 69 -136 73
-260 13 -428 -19 -54 -51 -143 -71 -196 -52 -143 -76 -273 -76 -417 0 -69 4
-121 9 -121 6 0 18 14 28 30 20 35 33 39 33 9 0 -35 -51 -350 -61 -376 -14
-37 -32 -23 -50 37 l-16 54 -5 -52 c-8 -87 -13 -322 -12 -583 2 -235 12 -359
35 -402 10 -18 12 -18 29 -2 10 9 26 37 34 61 14 42 14 46 -4 64 -30 30 -30
161 1 399 28 220 29 224 68 175 27 -34 36 -66 65 -226 41 -224 63 -296 107
-344 18 -20 19 -23 3 -60 -9 -21 -20 -49 -25 -62 l-9 -23 -29 20 c-16 12 -31
21 -34 21 -6 0 8 -74 18 -90 6 -10 13 -7 29 13 l21 26 38 -32 38 -32 -18 -115
c-21 -134 -25 -564 -8 -860 14 -241 12 -516 -4 -632 -12 -89 -15 -97 -38 -103
-36 -9 -62 -77 -69 -177 -5 -77 -4 -82 11 -63 9 11 30 66 48 122 18 57 37 103
44 103 18 0 70 -115 93 -204 31 -123 32 -121 -51 -143 -39 -10 -74 -24 -77
-31 -2 -7 8 -66 23 -130 25 -106 127 -485 141 -522 3 -8 38 67 78 169 40 102
75 180 79 175 8 -14 71 -240 92 -329 31 -136 82 -414 110 -600 29 -191 105
-546 141 -651 18 -56 55 -152 81 -214 l48 -112 48 -17 c95 -32 156 -103 413
-481 251 -370 501 -636 713 -760 67 -39 219 -105 226 -98 2 2 -48 59 -112 128
-63 69 -134 148 -156 175 -40 48 -38 47 30 -17 126 -117 304 -253 453 -347
218 -137 439 -243 940 -448 74 -30 176 -72 225 -93 50 -20 129 -52 178 -70 48
-18 86 -34 84 -36 -2 -2 -57 8 -123 21 -453 92 -1202 389 -1719 682 -165 94
-182 103 -146 76 229 -167 577 -401 806 -541 783 -478 1504 -715 2145 -705
167 3 310 13 310 23 0 4 -43 27 -95 51 -53 24 -101 49 -107 56 -17 21 7 41 67
54 45 10 59 9 87 -4 65 -30 116 -38 278 -44 123 -4 204 -1 319 12 281 31 377
24 350 -26 -12 -24 -11 -24 52 1 87 35 179 94 283 183 55 47 122 99 150 116
56 33 65 35 311 51 265 18 895 103 895 121 0 4 -8 9 -17 11 -21 5 1 19 197
133 74 43 171 99 215 125 250 145 611 335 1300 685 1027 521 1468 779 1950
1141 210 157 374 295 539 454 118 114 336 346 336 358 0 5 -16 14 -35 21 -19
7 -35 15 -35 19 0 4 66 43 146 87 81 44 154 85 163 92 14 10 13 11 -6 6 -38
-9 -28 29 37 152 33 62 60 124 60 138 0 22 25 45 148 138 81 62 181 140 222
174 140 114 545 448 554 456 16 14 -32 56 -77 68 -74 18 -148 -6 -224 -72
l-37 -32 24 35 c84 123 250 291 525 530 150 132 271 246 297 282 l20 28 -54
-21 c-29 -12 -59 -24 -67 -27 -8 -3 35 40 95 95 60 56 123 116 141 135 l32 33
-44 29 c-25 15 -45 29 -45 31 0 2 47 62 105 134 135 170 247 327 418 584 221
334 352 497 457 568 27 19 50 37 50 40 0 3 -39 12 -86 19 l-85 12 23 26 c27
31 295 318 382 411 82 86 64 74 -89 -62 -72 -64 -131 -114 -133 -113 -3 4 50
98 132 231 38 61 114 184 169 275 126 208 254 410 327 520 32 47 89 137 127
200 38 63 127 209 197 324 70 114 125 210 123 213 -3 2 -22 -3 -42 -11 -21 -9
-39 -16 -41 -16 -1 0 1 14 6 31 12 40 45 96 114 189 30 41 53 76 51 78 -2 2
-29 -5 -59 -17 -31 -11 -56 -19 -56 -18 0 2 30 68 66 148 67 147 195 463 233
577 12 35 56 182 97 325 180 625 269 894 419 1272 98 247 134 359 122 372 -4
3 -33 -50 -66 -118 -32 -68 -69 -133 -81 -144 l-22 -20 7 65 c19 164 111 406
221 578 l34 53 -28 -15 c-43 -22 -93 -83 -157 -189 -85 -143 -94 -145 -103
-28 -4 55 -1 75 17 109 30 58 28 62 -28 55 -47 -5 -50 -4 -56 20 -8 29 8 111
33 175 16 39 27 48 137 111 l120 68 3 68 c3 57 -1 75 -24 119 -22 41 -28 63
-26 111 2 112 60 283 109 328 19 16 20 16 36 -1 9 -10 21 -51 27 -92 18 -122
31 -170 46 -170 23 0 50 54 95 189 l41 126 -5 150 c-3 104 -15 206 -36 330
-91 519 -95 797 -16 1093 27 101 31 168 15 253 -20 107 -63 127 -144 69 -24
-18 -49 -29 -55 -26 -17 11 -13 150 9 275 11 63 18 116 17 118 -2 1 -21 -47
-42 -107 -22 -60 -41 -108 -42 -106 -2 1 6 68 16 147 22 163 61 481 67 549 9
103 15 177 19 215 13 123 31 346 40 485 4 52 15 129 26 170 10 41 24 115 30
165 21 163 15 678 -11 885 -4 36 -8 135 -9 220 -1 85 -4 171 -6 190 -2 19 -7
98 -10 175 -7 178 -14 271 -41 583 l-7 72 35 -14 35 -15 -33 97 c-86 253 -130
649 -80 717 11 15 15 16 34 4 48 -30 92 -151 111 -299 16 -137 20 -176 31
-345 6 -87 13 -162 17 -165 3 -3 2 35 -2 84 -9 118 -8 585 2 761 11 200 8 517
-6 605 -14 84 -54 248 -77 318 -30 91 -97 252 -104 252 -4 0 -8 -30 -9 -67 -1
-37 -3 -68 -5 -70 -1 -2 -21 34 -44 80 -83 167 -161 402 -260 787 -78 299
-151 517 -219 653 l-33 67 46 -35 c54 -41 90 -45 105 -11 10 21 3 36 -62 132
-289 432 -621 867 -919 1204 -164 186 -499 515 -660 649 -286 239 -628 471
-880 596 -47 23 -69 46 -153 154 -54 69 -118 149 -142 176 l-45 50 -22 -30
c-13 -16 -32 -40 -44 -54 l-20 -24 -112 47 c-120 51 -187 93 -197 125 -3 11
-1 38 5 61 14 51 7 73 -28 96 -18 11 -23 13 -16 3 6 -8 14 -22 17 -32 6 -15
-3 -13 -45 13 -231 136 -394 184 -498 145 -109 -41 -165 -42 -290 -8 -24 6
-24 6 5 -19 49 -41 111 -73 283 -147 180 -77 235 -107 271 -145 26 -28 23 -47
-11 -70 -22 -14 -30 -12 -140 45 -324 165 -637 255 -1243 359 -468 80 -569
110 -643 194 -17 20 -33 35 -34 35 -2 -1 -77 -16 -168 -34z m-10 -535 c-63
-22 -117 -40 -119 -40 -3 0 10 16 29 34 34 36 53 41 160 44 40 0 33 -4 -70
-38z m2402 -314 c667 -241 1285 -681 1793 -1276 165 -193 160 -196 -26 -14
-267 259 -519 467 -809 667 -95 65 -142 105 -194 167 -115 135 -286 254 -395
276 l-32 7 30 -52 c17 -29 31 -54 31 -56 0 -2 -75 33 -167 78 -128 61 -183 94
-233 138 -36 32 -76 67 -90 78 -35 29 -15 26 92 -13z m-3782 -199 c-190 -88
-433 -221 -645 -352 -90 -56 -217 -106 -232 -91 -15 14 110 155 192 215 151
112 370 193 740 274 63 14 47 1 -55 -46z m-1081 -396 c27 -17 3 -55 -61 -96
-308 -196 -750 -608 -968 -902 -40 -54 -76 -102 -80 -106 -4 -5 -23 3 -43 16
-32 22 -33 25 -17 35 102 63 340 326 316 349 -10 11 -122 -50 -215 -116 -96
-69 -141 -96 -141 -87 0 17 48 79 102 134 79 80 186 153 407 277 188 106 261
164 261 209 0 42 -16 63 -70 94 l-50 29 42 17 c313 126 476 173 517 147z
m6378 -75 c11 -11 62 -216 53 -216 -4 0 -14 7 -21 16 -7 9 -67 61 -133 117
l-120 100 108 -5 c59 -3 110 -9 113 -12z m842 -883 c97 -99 144 -182 227 -404
42 -112 74 -183 91 -199 l25 -25 -7 25 c-4 14 -32 79 -62 145 -91 197 -104
233 -101 272 2 20 8 38 14 40 19 6 139 -102 193 -174 73 -98 115 -187 185
-394 34 -101 66 -193 71 -204 7 -15 -2 -11 -34 15 -82 67 -80 69 -39 -53 56
-170 89 -366 78 -462 0 -5 -26 40 -58 100 -31 61 -54 112 -50 115 4 3 -77 158
-178 345 -223 409 -328 613 -379 731 -48 112 -77 204 -63 204 6 0 45 -35 87
-77z m-8449 -128 c0 -6 -48 -30 -79 -40 -17 -5 -21 -4 -16 5 12 20 95 51 95
35z m104 -77 c-9 -30 -35 -70 -41 -64 -5 5 37 86 45 86 2 0 0 -10 -4 -22z
m-651 -711 c-21 -24 -107 -122 -192 -218 -201 -228 -199 -226 -171 -169 26 52
165 239 239 322 42 46 117 97 159 107 2 1 -14 -18 -35 -42z m10104 -1297 c7
-30 43 -129 79 -220 111 -277 144 -371 169 -473 31 -128 41 -248 25 -307 l-13
-45 -63 220 c-58 203 -101 335 -90 275 3 -14 24 -132 46 -264 41 -240 49 -332
16 -175 -33 152 -115 440 -193 681 -72 223 -76 239 -65 276 14 45 49 95 65 89
5 -1 16 -27 24 -57z m-12647 -1144 c-28 -58 -56 -106 -61 -106 -5 0 -9 28 -8
63 l0 62 57 47 c31 25 59 44 61 43 2 -2 -20 -51 -49 -109z m-94 5 c-29 -32
-142 -117 -121 -90 50 62 101 109 119 109 18 0 18 -1 2 -19z m47 -254 c-11
-18 -98 -170 -194 -337 -148 -259 -175 -300 -177 -275 -2 16 2 48 8 70 36 119
212 401 332 532 48 51 57 54 31 10z m12995 -159 l1 -83 -14 65 c-7 36 -11 75
-8 87 10 45 20 12 21 -69z m-13179 -883 c12 -14 19 -30 16 -35 -12 -20 -129
-90 -150 -90 -42 0 -46 22 -12 62 35 41 95 88 112 88 6 0 21 -11 34 -25z
m-1216 -2119 l37 -75 -59 -83 c-33 -46 -74 -99 -91 -118 l-31 -35 28 45 c54
85 64 118 63 199 -2 116 -1 141 8 141 4 0 25 -34 45 -74z m-205 -332 c12 -8
22 -18 22 -23 0 -16 -120 -129 -250 -237 -69 -57 -144 -120 -167 -140 l-43
-36 15 50 c66 222 161 351 292 398 42 14 96 10 131 -12z m-491 -136 c-3 -8 -6
-5 -6 6 -1 11 2 17 5 13 3 -3 4 -12 1 -19z m-2 -284 c21 -145 13 -199 -44
-273 -38 -51 -119 -127 -126 -119 -2 2 18 89 46 193 27 105 59 228 71 274 26
101 29 96 53 -75z m14764 -2685 c6 -18 11 -43 11 -56 0 -34 -76 -196 -99 -212
-16 -10 -21 -10 -21 -1 0 11 54 242 66 283 8 27 31 20 43 -14z m-955 -4900
c-32 -109 -73 -158 -204 -244 -52 -34 -119 -87 -147 -118 -29 -31 -53 -55 -53
-53 0 12 42 121 63 161 41 81 96 136 188 184 46 25 102 64 124 87 22 23 41 41
42 40 2 -2 -4 -27 -13 -57z m-474 -362 c0 -20 -40 -127 -67 -182 -40 -79 -142
-240 -148 -233 -8 7 44 186 66 231 34 67 149 209 149 184z m-14608 -825 l-3
-153 -32 7 c-40 8 -109 43 -105 52 2 4 24 48 49 98 25 49 54 121 65 158 l19
68 5 -38 c3 -22 4 -108 2 -192z m3 -1606 c24 -108 17 -173 -33 -282 -21 -49
-43 -102 -47 -119 -8 -29 -9 -28 -16 20 -17 116 -5 155 47 155 33 0 39 33 25
134 -13 96 -14 208 -2 186 5 -8 17 -50 26 -94z m-658 -1018 c-3 -8 -6 -5 -6 6
-1 11 2 17 5 13 3 -3 4 -12 1 -19z m103 -289 c0 -9 -9 -27 -19 -40 -16 -19
-21 -21 -25 -9 -5 15 -36 210 -36 226 0 16 80 -161 80 -177z m894 -245 c25
-93 23 -117 -13 -129 -17 -5 -71 9 -71 19 0 3 9 20 20 38 12 21 22 63 26 108
4 41 9 70 11 64 2 -6 14 -51 27 -100z m10478 -197 c-33 -51 -68 -108 -79 -127
-16 -32 -22 -35 -63 -35 -25 -1 -60 -9 -79 -18 -19 -9 -37 -17 -40 -17 -3 0
66 72 154 160 178 178 205 188 107 37z m-11032 -244 c1 -110 65 -267 175 -427
102 -150 112 -183 73 -246 l-21 -35 -27 105 c-29 107 -57 180 -72 180 -4 0 -8
-4 -8 -8 0 -21 -33 -199 -41 -219 -21 -55 -69 -3 -69 74 0 26 -9 111 -20 188
-28 192 -35 320 -21 373 13 47 31 56 31 15z m2353 -2654 c136 -54 334 -176
472 -293 44 -37 127 -106 185 -153 129 -106 147 -123 95 -93 -53 32 -232 150
-309 204 -107 76 -201 115 -245 101 -10 -3 -25 -20 -32 -37 l-13 -31 -18 53
c-10 29 -16 55 -14 57 2 2 20 -3 40 -11 20 -8 36 -14 36 -12 0 2 -53 46 -117
99 -128 103 -183 156 -148 142 11 -4 42 -16 68 -26z m5111 -75 c34 -9 80 -14
106 -11 l44 5 -39 -24 c-22 -13 -43 -24 -48 -24 -4 0 -12 -12 -18 -27 -8 -22
-7 -30 6 -39 20 -15 50 -11 192 27 62 16 129 29 150 29 l38 -1 -28 -23 c-64
-52 -265 -135 -407 -169 -150 -35 -165 -30 -71 28 33 20 72 50 86 67 36 43 20
56 -81 68 -123 14 -134 22 -88 65 30 28 25 32 -14 10 -15 -8 -56 -28 -92 -45
-87 -42 -42 -3 54 45 78 40 117 43 210 19z m-3551 -241 c4 -2 7 -8 7 -13 0 -5
-20 -2 -45 7 -25 8 -45 17 -45 19 0 5 70 -6 83 -13z m3268 -232 c19 -6 16 -11
-28 -52 -27 -25 -70 -58 -97 -74 -56 -33 -164 -65 -218 -65 -57 0 -238 22
-238 29 0 3 24 12 53 18 28 7 111 42 182 78 72 35 148 69 170 74 41 10 140 6
176 -8z"/>
<path d="M18145 55881 c55 -56 101 -101 103 -101 13 0 -44 72 -95 121 -108
100 -113 86 -8 -20z"/>
<path d="M39221 54944 c0 -11 3 -14 6 -6 3 7 2 16 -1 19 -3 4 -6 -2 -5 -13z"/>
<path d="M60320 53375 c-24 -25 -39 -45 -33 -45 6 0 27 20 47 45 21 25 36 45
34 45 -2 0 -24 -20 -48 -45z"/>
<path d="M72466 49772 c-15 -70 -28 -133 -29 -141 -1 -8 15 -20 37 -27 l39
-14 -7 152 c-3 83 -8 153 -9 155 -2 1 -16 -55 -31 -125z"/>
<path d="M43004 49804 c-23 -52 -26 -192 -8 -314 34 -227 124 -537 260 -895
127 -336 127 -336 131 -332 11 12 -52 309 -192 897 -57 239 -116 487 -130 550
-15 63 -31 119 -36 124 -5 6 -16 -7 -25 -30z"/>
<path d="M72656 49558 c-26 -81 -28 -100 -23 -181 6 -97 26 -145 28 -66 0 24
2 51 3 59 8 42 28 271 24 275 -2 2 -17 -37 -32 -87z"/>
<path d="M43000 48483 c0 -15 79 -405 85 -418 3 -5 3 44 1 110 -3 104 -7 131
-33 201 -33 87 -52 127 -53 107z"/>
<path d="M25690 48265 c73 -140 143 -266 146 -262 2 1 -12 45 -29 97 -38 113
-70 170 -132 236 l-47 49 62 -120z"/>
<path d="M23521 48253 c0 -5 9 -26 20 -48 18 -38 18 -36 3 28 -5 23 -25 40
-23 20z"/>
<path d="M43394 48223 c3 -10 10 -40 15 -66 9 -49 17 -65 27 -54 6 6 -34 137
-42 137 -3 0 -3 -8 0 -17z"/>
<path d="M25978 48176 l-36 -11 92 -127 c112 -155 113 -156 86 -88 -73 188
-94 240 -99 239 -3 -1 -22 -6 -43 -13z"/>
<path d="M43240 48183 c0 -15 103 -303 107 -300 3 4 -13 205 -22 267 -2 14 -4
28 -4 33 -1 4 -19 7 -41 7 -22 0 -40 -3 -40 -7z"/>
<path d="M26560 47346 c0 -2 8 -10 18 -17 15 -13 16 -12 3 4 -13 16 -21 21
-21 13z"/>
<path d="M43620 47185 c0 -5 5 -17 10 -25 5 -8 10 -10 10 -5 0 6 -5 17 -10 25
-5 8 -10 11 -10 5z"/>
<path d="M44136 46720 c8 -88 16 -132 31 -183 13 -43 17 -48 24 -32 21 54 -3
183 -45 241 -13 17 -14 15 -10 -26z"/>
<path d="M44376 46265 c35 -98 172 -297 294 -425 l71 -75 -62 95 c-55 84 -276
388 -301 415 -6 6 -7 3 -2 -10z"/>
<path d="M44768 45718 c11 -18 41 -71 66 -118 25 -47 46 -81 46 -77 0 22 -114
227 -127 227 -2 0 4 -15 15 -32z"/>
<path d="M49490 44118 c-80 -13 -89 -17 -67 -29 37 -21 10 -58 -63 -84 -25 -9
-85 -27 -135 -40 l-90 -24 210 5 c239 5 326 15 434 51 70 22 205 92 197 101
-2 2 -46 10 -97 17 -104 16 -304 18 -389 3z"/>
<path d="M47498 44003 c7 -3 16 -2 19 1 4 3 -2 6 -13 5 -11 0 -14 -3 -6 -6z"/>
<path d="M48975 43912 c-33 -8 -55 -17 -50 -18 6 -2 42 5 80 15 39 11 61 19
50 19 -11 0 -47 -7 -80 -16z"/>
<path d="M40080 42447 c-3 -3 -71 -7 -150 -8 -132 -1 -262 -7 -515 -24 -997
-66 -2086 -309 -3010 -670 -378 -148 -791 -341 -839 -393 -16 -18 -27 -34 -24
-37 3 -3 38 6 79 20 40 14 79 25 88 25 27 0 -2 -17 -59 -35 -90 -29 -269 -103
-365 -153 -396 -203 -762 -446 -1482 -980 -347 -257 -461 -329 -510 -319 -19
4 -42 -15 -133 -109 -111 -116 -205 -247 -275 -382 -37 -72 -39 -73 -139 -129
-251 -141 -613 -371 -891 -567 -143 -101 -525 -386 -525 -392 0 -3 83 51 185
121 102 69 185 122 185 117 0 -19 -36 -46 -245 -187 -121 -82 -247 -168 -281
-191 -34 -24 -63 -42 -66 -39 -5 5 -276 -214 -517 -419 -522 -443 -987 -866
-1956 -1781 -641 -605 -807 -760 -1064 -993 -281 -256 -287 -262 -193 -188 87
70 176 121 192 111 17 -11 11 -42 -30 -150 -22 -58 -40 -113 -40 -123 0 -10
-31 -37 -78 -68 -350 -230 -923 -787 -1476 -1432 -298 -348 -683 -841 -1030
-1320 -137 -189 -146 -205 -132 -221 9 -10 16 -22 16 -28 0 -20 34 -41 55 -33
11 5 24 9 28 9 4 1 -77 -90 -181 -201 -265 -284 -371 -402 -367 -406 1 -2 26
9 55 23 29 15 49 20 44 13 -58 -100 -443 -644 -853 -1203 -802 -1096 -1120
-1575 -1356 -2045 -53 -106 -166 -360 -160 -360 2 0 16 21 31 48 40 68 160
248 209 312 84 110 179 179 230 168 11 -2 -19 -63 -111 -228 -69 -124 -150
-272 -181 -330 -31 -58 -90 -168 -131 -245 -249 -464 -763 -1498 -1059 -2130
-41 -88 -80 -169 -85 -180 -5 -11 6 -3 26 18 19 20 40 37 45 37 25 0 -107
-303 -312 -715 l-149 -300 55 -48 54 -48 -39 -92 c-109 -250 -262 -698 -423
-1232 -68 -225 -262 -814 -287 -873 l-14 -32 -22 30 c-25 33 -57 41 -48 13 2
-10 8 -53 12 -96 7 -82 14 -87 34 -24 30 93 29 -25 -1 -203 -12 -69 -48 -231
-81 -360 -193 -758 -252 -1012 -323 -1409 -33 -181 -32 -177 -49 -331 -21
-192 -24 -231 -31 -360 -3 -63 -8 -144 -11 -180 -6 -79 4 -72 39 26 14 39 35
92 47 118 49 103 60 74 60 -164 l0 -196 -35 -33 c-47 -44 -71 -93 -95 -193
-29 -123 -37 -234 -39 -528 -3 -447 -25 -587 -102 -653 l-40 -35 36 -188 c21
-104 66 -305 101 -448 l63 -259 -64 -109 -65 -109 45 -90 c125 -249 170 -436
200 -839 36 -475 72 -708 151 -968 55 -183 154 -432 170 -432 3 0 3 34 -1 75
-3 42 -3 75 2 75 5 0 24 -51 43 -112 19 -62 73 -228 120 -368 88 -256 108
-330 92 -330 -11 0 -44 46 -99 134 -24 39 -43 67 -43 64 0 -11 162 -374 242
-541 167 -350 367 -710 543 -975 169 -256 261 -349 226 -230 -29 97 -73 188
-91 188 -51 0 -265 371 -427 739 -85 194 -132 311 -125 311 18 0 64 -40 105
-90 25 -30 113 -156 197 -280 224 -330 335 -468 440 -545 41 -30 50 -45 86
-136 21 -57 41 -107 43 -113 2 -5 -3 -7 -10 -4 -8 4 -31 14 -52 22 -36 16 -38
16 -28 -1 19 -35 101 -133 111 -133 13 0 13 31 0 64 -12 32 -9 32 65 1 l60
-26 65 -116 c81 -145 275 -438 399 -601 259 -343 427 -527 1079 -1184 513
-517 552 -558 540 -577 -17 -28 4 -66 83 -154 60 -67 216 -203 224 -195 6 5
-150 205 -227 292 -59 65 -60 69 -33 62 46 -11 150 -61 265 -128 127 -74 300
-185 300 -193 0 -3 -13 -35 -30 -72 -16 -36 -30 -69 -30 -73 0 -18 408 -242
655 -360 169 -82 244 -115 412 -186 l104 -43 -206 212 c-114 116 -211 220
-216 229 -11 20 -17 22 181 -67 1148 -514 1817 -753 2452 -875 257 -49 248
-48 323 -55 33 -3 94 -10 135 -15 41 -5 126 -12 188 -16 112 -7 112 -7 175 24
34 18 88 38 120 46 82 21 398 57 617 71 91 6 276 21 350 30 19 2 71 7 115 10
226 19 657 87 920 147 217 49 517 144 686 218 99 43 282 141 276 147 -2 2
-107 -19 -233 -46 -276 -60 -401 -84 -416 -79 -6 2 25 12 68 22 140 33 523
152 735 229 303 110 640 253 1124 477 327 151 817 362 1115 479 85 34 165 66
178 71 12 5 22 8 22 5 0 -12 -744 -390 -1240 -630 -124 -60 -315 -152 -425
-206 -110 -53 -263 -127 -340 -164 -205 -98 -655 -301 -843 -380 -89 -37 -161
-70 -159 -72 8 -7 1119 393 1692 610 937 355 1520 592 2077 843 236 106 847
407 1033 508 114 62 118 65 81 66 -21 0 -83 -7 -137 -16 -113 -18 -164 -16
-164 6 0 17 119 109 149 114 215 40 317 73 711 228 526 207 688 249 644 167
-9 -18 6 -13 87 30 128 69 237 141 382 255 249 195 289 214 547 255 212 34
545 75 735 91 69 5 150 12 180 15 80 7 229 14 444 21 160 5 186 8 166 19 -21
11 -12 15 106 43 273 66 618 116 898 132 153 8 621 5 731 -5 529 -50 973 -137
1480 -290 540 -164 1160 -412 1870 -750 66 -31 147 -70 180 -85 33 -15 186
-90 340 -165 490 -240 933 -455 1080 -525 472 -223 750 -347 1055 -473 232
-95 522 -208 526 -204 2 1 -2 22 -7 46 -5 24 -8 45 -7 46 2 2 59 -32 128 -74
306 -191 443 -271 421 -247 -14 14 -21 29 -18 33 7 7 135 -18 322 -62 61 -14
146 -29 189 -32 72 -6 94 -13 235 -80 535 -256 1166 -508 1691 -677 274 -87
257 -84 265 -47 20 91 -107 194 -330 267 -55 19 -93 33 -84 34 25 0 334 -64
574 -120 953 -221 1225 -269 1633 -285 l127 -5 -90 30 c-49 16 -96 30 -102 30
-7 0 -13 4 -13 9 0 4 22 5 49 0 55 -8 209 -18 554 -35 152 -7 143 -12 128 63
l-8 42 41 5 c23 3 118 10 211 16 419 28 917 127 1413 281 301 94 507 169 1072
394 252 100 421 160 515 180 27 7 21 11 -73 47 -57 22 -100 44 -95 48 4 4 76
35 158 70 247 105 918 452 970 502 6 5 -87 -39 -205 -97 -213 -106 -404 -194
-385 -177 6 5 46 33 90 62 328 218 825 598 1125 860 344 302 804 758 1069
1060 242 277 641 782 641 813 0 5 -25 -6 -55 -23 -30 -17 -55 -27 -55 -22 0
25 128 213 288 420 50 66 92 123 92 126 0 3 -38 -19 -85 -49 -74 -48 -106 -60
-76 -29 5 5 55 87 110 182 636 1090 984 2276 1271 4337 37 268 37 266 50 394
10 108 14 338 5 329 -3 -3 -12 -57 -21 -119 -40 -309 -60 -418 -83 -456 -17
-26 -7 501 12 692 9 83 18 182 22 220 11 136 38 353 52 429 10 55 -15 17 -41
-62 -30 -93 -49 -189 -76 -385 -30 -221 -49 -277 -69 -200 -21 82 -42 250 -36
293 19 144 13 161 -35 110 -62 -67 -80 -14 -80 239 l-1 187 91 189 92 190 -7
63 c-9 87 -41 200 -69 242 -68 103 -87 174 -112 410 -18 160 -23 409 -11 453
7 24 10 27 23 16 24 -20 44 -63 110 -248 89 -247 99 -251 98 -38 -1 173 -27
422 -60 579 -42 197 -160 520 -349 948 -297 675 -452 1107 -590 1640 -47 181
-77 275 -114 359 -61 135 -112 223 -148 251 -24 19 -27 19 -44 4 -10 -9 -23
-42 -29 -73 -13 -69 -26 -101 -40 -101 -18 0 -59 102 -162 400 -54 157 -96
274 -94 260 3 -14 23 -108 46 -209 23 -101 40 -185 38 -187 -2 -1 -37 93 -77
209 -41 117 -125 349 -189 517 -63 168 -127 341 -142 385 -15 44 -37 98 -48
120 -11 22 -54 124 -96 228 -106 261 -256 610 -387 898 -61 134 -128 294 -149
354 -145 422 -425 961 -894 1725 -82 135 -196 326 -252 425 -56 99 -118 205
-137 235 -19 30 -92 150 -163 265 -164 270 -403 649 -561 889 l-124 189 47 -7
47 -6 -59 62 c-221 232 -678 880 -783 1109 -55 120 -51 132 30 81 121 -78 361
-403 734 -999 49 -77 97 -152 108 -165 27 -33 14 -10 -78 137 -205 327 -438
729 -725 1250 -347 629 -470 822 -755 1180 -113 142 -383 454 -425 490 l-23
20 15 -25 c8 -14 38 -70 67 -125 l51 -100 -104 108 c-291 299 -514 571 -1021
1247 -360 482 -523 687 -756 954 l-43 49 59 -40 c80 -54 124 -68 144 -48 13
13 13 18 0 44 -8 16 -122 132 -254 257 -132 125 -391 372 -575 549 -1885 1805
-2874 2658 -3970 3425 -86 60 -121 92 -190 178 -87 107 -338 402 -370 436 -18
18 -20 18 -75 -22 l-57 -40 -102 65 c-160 104 -295 203 -348 256 -51 51 -59
81 -37 131 15 33 -1 72 -48 117 l-35 34 22 -38 c13 -21 20 -40 18 -42 -3 -3
-47 29 -98 71 -258 209 -474 354 -600 403 -41 16 -112 34 -157 41 -98 13 -171
34 -236 67 -42 21 -76 41 -207 121 -14 9 4 -15 40 -52 78 -81 211 -185 425
-336 335 -235 470 -357 427 -384 -31 -19 -71 -14 -105 12 -20 15 -108 81 -194
148 -427 328 -1065 737 -1613 1036 -96 52 -326 173 -510 268 -573 296 -704
377 -772 481 l-31 48 -186 45 c-804 195 -1631 321 -2376 361 -60 4 -137 8
-170 10 -115 8 -680 18 -685 12z m-140 -548 c107 -6 202 -12 210 -14 8 -1 70
-8 138 -15 67 -7 121 -14 119 -16 -1 -2 -88 -6 -192 -9 -105 -3 -221 -7 -260
-10 -38 -2 -110 -7 -160 -10 -49 -3 -112 -8 -140 -10 -27 -2 -81 -7 -120 -10
-191 -16 -554 -65 -775 -105 -110 -19 -380 -38 -380 -26 0 4 37 24 83 45 239
110 542 172 932 189 176 8 280 6 545 -9z m-1862 -125 c12 -4 22 -12 22 -19 0
-24 -46 -42 -234 -90 -826 -210 -1725 -623 -2325 -1069 -55 -42 -103 -76 -105
-76 -2 0 -6 9 -9 20 -3 13 -17 22 -38 27 l-32 6 59 30 c288 143 778 438 742
445 -41 8 -208 -52 -439 -156 -85 -39 -180 -80 -210 -91 l-54 -21 35 31 c63
55 173 123 315 195 224 113 447 195 919 339 251 77 382 128 423 167 42 39 26
84 -43 128 l-45 28 28 6 c85 18 454 76 548 86 61 6 119 13 130 14 39 6 290 6
313 0z m4924 -145 c81 -24 146 -44 144 -46 -2 -2 -68 7 -147 21 -79 13 -184
30 -234 37 l-90 14 75 11 c89 13 69 16 252 -37z m-7712 -1079 c-22 -15 -180
-63 -186 -57 -8 8 147 66 176 66 20 1 22 -1 10 -9z m114 -74 c-3 -8 -29 -32
-57 -54 -102 -77 -100 -64 3 22 62 52 61 51 54 32z m11561 -854 c871 -553
1754 -1241 2654 -2066 224 -205 584 -552 736 -707 l110 -112 -150 134 c-541
487 -1146 997 -1690 1426 -182 143 -260 212 -365 324 -232 245 -428 410 -642
540 -51 31 -94 55 -96 54 -2 -2 19 -34 46 -72 72 -100 72 -100 -14 -40 -44 31
-171 121 -284 200 -172 121 -230 169 -360 297 -85 84 -148 149 -140 144 8 -4
96 -59 195 -122z m-13000 -90 c-6 -5 -68 -49 -140 -97 -145 -99 -488 -343
-665 -473 -63 -47 -122 -89 -130 -95 -8 -6 8 13 35 42 59 62 274 237 465 378
201 148 224 162 334 209 108 46 115 49 101 36z m15365 -1486 l135 -42 31 -55
c17 -31 57 -104 89 -164 68 -127 81 -133 -167 80 -95 83 -196 169 -223 193
-59 50 -60 50 135 -12z m1774 -1555 c150 -129 266 -263 527 -611 174 -232 273
-349 286 -336 8 8 -53 86 -227 295 -172 208 -218 269 -254 339 -28 55 -33 82
-15 82 17 0 186 -130 290 -223 190 -170 300 -297 549 -637 79 -107 170 -228
202 -267 33 -40 56 -73 52 -73 -4 0 -43 26 -88 58 -102 73 -115 81 -100 61 6
-8 47 -61 91 -119 114 -149 255 -349 319 -452 67 -108 167 -289 162 -293 -3
-3 -258 268 -298 318 -14 17 -18 27 -10 22 18 -11 -19 31 -324 361 -704 762
-1185 1334 -1333 1584 l-27 44 57 -40 c31 -22 95 -73 141 -113z m-22351 -655
c-18 -31 -276 -326 -285 -326 -6 0 -8 6 -5 13 76 176 67 163 184 247 59 44
109 79 111 80 2 0 -1 -6 -5 -14z m-231 -141 c1 -5 -57 -52 -128 -103 -128 -94
-129 -94 -74 -37 60 62 180 156 193 152 5 -1 9 -7 9 -12z m-108 -367 c-74 -79
-495 -551 -659 -738 -256 -291 -288 -326 -280 -298 42 140 526 692 865 986
100 87 123 103 74 50z m-969 -1640 c13 -27 13 -35 3 -43 -199 -153 -271 -191
-294 -153 -14 22 223 228 262 228 7 0 20 -15 29 -32z m26659 -568 c64 -84 116
-145 311 -365 489 -549 689 -803 818 -1035 43 -78 85 -182 64 -160 -8 8 -138
170 -289 360 -152 190 -290 361 -308 380 l-32 35 24 -35 c25 -36 483 -680 570
-802 86 -122 42 -71 -88 100 -268 351 -627 802 -935 1173 -203 244 -229 289
-229 397 0 59 10 72 30 40 8 -12 37 -52 64 -88z m1719 -2367 c53 -84 94 -153
93 -153 -10 0 -175 240 -184 269 -23 66 -25 69 91 -116z m-31251 -584 l-4
-127 -148 -173 c-173 -205 -277 -318 -176 -193 128 159 193 268 231 385 30 97
93 246 99 237 2 -2 1 -60 -2 -129z m-443 -575 c15 -19 18 -31 11 -44 -11 -21
-236 -234 -460 -435 -91 -81 -198 -180 -237 -219 -40 -39 -73 -67 -73 -62 0
13 106 199 166 293 125 194 252 342 360 419 78 56 118 73 171 74 33 0 46 -5
62 -26z m-644 -264 c-9 -16 -18 -30 -21 -30 -2 0 2 14 11 30 9 17 18 30 21 30
2 0 -2 -13 -11 -30z m-115 -244 c-10 -27 -39 -140 -80 -314 -29 -124 -69 -218
-134 -316 -55 -83 -222 -268 -258 -287 -20 -11 179 390 400 809 70 132 97 173
72 108z m37319 -9258 c42 -67 53 -130 58 -333 3 -137 1 -209 -6 -229 -6 -16
-13 -27 -15 -25 -2 2 -7 33 -10 69 -6 55 -19 163 -41 335 -3 22 -10 73 -16
112 -13 91 -1 120 30 71z m-39642 -6588 c36 -80 105 -225 153 -322 l88 -178
-52 1 c-82 0 -119 18 -128 59 -4 19 -19 96 -33 170 -15 74 -44 202 -66 283
-35 135 -47 187 -32 147 3 -8 35 -80 70 -160z m19323 -1821 c30 -9 94 -34 141
-53 47 -20 110 -40 140 -45 l54 -9 -80 -1 c-92 -1 -154 -16 -162 -37 -13 -35
18 -44 284 -79 124 -16 212 -33 250 -47 l58 -23 -145 -3 c-227 -6 -782 27
-820 48 -16 9 0 13 135 29 238 29 263 59 98 111 -150 47 -183 60 -183 75 0 8
18 19 43 25 23 6 47 13 52 15 17 6 -176 -6 -254 -16 -41 -5 -76 -8 -78 -5 -5
5 160 35 217 40 76 6 192 -6 250 -25z m-655 -384 c28 -10 54 -21 58 -25 12
-11 -225 -87 -328 -105 -115 -21 -365 -20 -539 0 -71 8 -131 17 -133 18 -1 2
42 9 97 15 54 7 170 31 257 53 87 23 190 47 228 55 94 18 292 12 360 -11z
m19683 -252 c-130 -209 -250 -330 -448 -452 -146 -90 -255 -169 -365 -265 -81
-71 -82 -71 58 100 190 233 289 322 501 447 87 51 144 93 206 153 47 46 86 84
88 84 1 0 -17 -30 -40 -67z m-36528 -353 c120 -120 175 -192 250 -335 54 -102
97 -171 134 -215 34 -40 -83 60 -157 133 -84 85 -96 111 -66 143 l22 23 -26
35 c-15 19 -94 102 -175 184 -82 82 -164 171 -183 198 l-33 49 64 -55 c36 -29
112 -101 170 -160z m35609 -332 c-41 -80 -247 -297 -424 -449 -121 -104 -235
-190 -215 -164 47 62 207 242 285 320 69 69 346 309 363 314 1 1 -3 -9 -9 -21z
m-24199 -83 c0 -3 -110 -41 -150 -52 -8 -2 17 11 55 30 58 28 95 37 95 22z
m14260 -752 c113 -47 207 -88 210 -91 17 -17 -131 15 -287 62 -101 30 -210 60
-243 67 -47 9 -60 16 -60 30 0 20 -84 94 -168 148 -28 18 -52 34 -52 36 0 2
89 -35 198 -82 108 -47 289 -123 402 -170z m-15221 -137 c-2 -3 -169 -54 -369
-115 -391 -117 -492 -152 -592 -202 -108 -53 -140 -98 -101 -141 15 -17 14
-18 -33 -12 -27 4 -67 10 -89 14 l-40 7 63 28 c34 16 60 30 58 32 -2 3 -73
-16 -158 -41 -237 -70 -450 -127 -455 -123 -5 6 179 95 332 162 305 132 573
212 1170 349 189 44 222 50 214 42z m-7936 -404 c28 -25 22 -58 -14 -71 -40
-14 -69 -14 -69 0 0 22 -117 131 -204 190 -50 34 -95 66 -101 71 -17 15 369
-174 388 -190z m-1822 71 c13 -16 12 -17 -3 -4 -17 13 -22 21 -14 21 2 0 10
-8 17 -17z m361 -211 c134 -63 190 -102 211 -144 9 -18 14 -34 12 -36 -4 -4
-385 247 -385 254 0 2 12 -2 28 -10 15 -7 75 -37 134 -64z m1619 -632 c208
-92 412 -143 709 -180 248 -30 310 -40 370 -63 52 -19 129 -81 117 -94 -3 -3
-97 20 -209 51 -241 66 -328 87 -328 77 0 -4 62 -45 138 -91 191 -117 223
-140 216 -152 -8 -13 -138 -5 -156 9 -14 11 -60 31 -383 164 -375 153 -645
303 -645 356 0 9 13 5 40 -12 23 -14 81 -44 131 -65z m5086 -306 c-3 -3 -12
-4 -19 -1 -8 3 -5 6 6 6 11 1 17 -2 13 -5z"/>
<path d="M47050 40196 c0 -2 8 -10 18 -17 15 -13 16 -12 3 4 -13 16 -21 21
-21 13z"/>
<path d="M31184 38195 c-34 -24 -64 -51 -68 -60 -3 -9 26 10 64 41 61 49 78
65 68 64 -2 0 -31 -21 -64 -45z"/>
<path d="M22528 32394 c-39 -21 -35 -28 5 -8 37 19 44 24 31 24 -5 -1 -21 -8
-36 -16z"/>
<path d="M21713 32123 c-108 -3 -123 -6 -123 -21 0 -9 -3 -27 -6 -39 -8 -31 0
-30 148 13 113 33 171 57 123 52 -11 -1 -75 -4 -142 -5z"/>
<path d="M21420 31885 c-36 -8 -85 -21 -110 -29 l-45 -14 65 0 c36 -1 139 7
230 17 l165 17 -85 7 c-47 4 -101 9 -120 12 -19 2 -64 -2 -100 -10z"/>
<path d="M57433 28560 c3 -8 48 -115 99 -237 l93 -223 47 0 48 0 -52 88 c-156
265 -253 418 -235 372z"/>
<path d="M57816 28285 c90 -263 131 -356 227 -511 88 -142 102 -150 44 -24
-60 128 -282 566 -271 535z"/>
<path d="M20905 24611 c-20 -33 -52 -95 -72 -138 -37 -79 -96 -243 -91 -249 2
-1 28 52 58 119 55 123 139 306 147 320 2 4 2 7 -1 7 -2 0 -21 -27 -41 -59z"/>
<path d="M57674 8874 c-18 -14 -18 -15 4 -4 12 6 22 13 22 15 0 8 -5 6 -26
-11z"/>
</g>
</svg>
